<svg xmlns="http://www.w3.org/2000/svg" version="1.1" viewBox="0 0 29 29"><path d="M 0 0 m 0.4 0.5 l 0.1 -0.5 a 0.5 0.5 0 1 1 0 1 z M 0 1 m 0.4 0.5 l 0.1 -0.5 a 0.5 0.5 0 1 1 0 1 z M 0 2 m 0.4 0.5 l 0.1 -0.5 a 0.5 0.5 0 1 1 0 1 z M 0 3 m 0.4 0.5 l 0.1 -0.5 a 0.5 0.5 0 1 1 0 1 z M 0 4 m 0.4 0.5 l 0.1 -0.5 a 0.5 0.5 0 1 1 0 1 z M 0 5 m 0.4 0.5 l 0.1 -0.5 a 0.5 0.5 0 1 1 0 1 z M 0 6 m 0.4 0.5 l 0.1 -0.5 a 0.5 0.5 0 1 1 0 1 z M 0 10 m 0.4 0.5 l 0.1 -0.5 a 0.5 0.5 0 1 1 0 1 z M 0 12 m 0.4 0.5 l 0.1 -0.5 a 0.5 0.5 0 1 1 0 1 z M 0 15 m 0.4 0.5 l 0.1 -0.5 a 0.5 0.5 0 1 1 0 1 z M 0 17 m 0.4 0.5 l 0.1 -0.5 a 0.5 0.5 0 1 1 0 1 z M 0 19 m 0.4 0.5 l 0.1 -0.5 a 0.5 0.5 0 1 1 0 1 z M 0 22 m 0.4 0.5 l 0.1 -0.5 a 0.5 0.5 0 1 1 0 1 z M 0 23 m 0.4 0.5 l 0.1 -0.5 a 0.5 0.5 0 1 1 0 1 z M 0 24 m 0.4 0.5 l 0.1 -0.5 a 0.5 0.5 0 1 1 0 1 z M 0 25 m 0.4 0.5 l 0.1 -0.5 a 0.5 0.5 0 1 1 0 1 z M 0 26 m 0.4 0.5 l 0.1 -0.5 a 0.5 0.5 0 1 1 0 1 z M 0 27 m 0.4 0.5 l 0.1 -0.5 a 0.5 0.5 0 1 1 0 1 z M 0 28 m 0.4 0.5 l 0.1 -0.5 a 0.5 0.5 0 1 1 0 1 z M 1 0 m 0.4 0.5 l 0.1 -0.5 a 0.5 0.5 0 1 1 0 1 z M 1 6 m 0.4 0.5 l 0.1 -0.5 a 0.5 0.5 0 1 1 0 1 z M 1 13 m 0.4 0.5 l 0.1 -0.5 a 0.5 0.5 0 1 1 0 1 z M 1 15 m 0.4 0.5 l 0.1 -0.5 a 0.5 0.5 0 1 1 0 1 z M 1 16 m 0.4 0.5 l 0.1 -0.5 a 0.5 0.5 0 1 1 0 1 z M 1 20 m 0.4 0.5 l 0.1 -0.5 a 0.5 0.5 0 1 1 0 1 z M 1 22 m 0.4 0.5 l 0.1 -0.5 a 0.5 0.5 0 1 1 0 1 z M 1 28 m 0.4 0.5 l 0.1 -0.5 a 0.5 0.5 0 1 1 0 1 z M 2 0 m 0.4 0.5 l 0.1 -0.5 a 0.5 0.5 0 1 1 0 1 z M 2 2 m 0.4 0.5 l 0.1 -0.5 a 0.5 0.5 0 1 1 0 1 z M 2 3 m 0.4 0.5 l 0.1 -0.5 a 0.5 0.5 0 1 1 0 1 z M 2 4 m 0.4 0.5 l 0.1 -0.5 a 0.5 0.5 0 1 1 0 1 z M 2 6 m 0.4 0.5 l 0.1 -0.5 a 0.5 0.5 0 1 1 0 1 z M 2 9 m 0.4 0.5 l 0.1 -0.5 a 0.5 0.5 0 1 1 0 1 z M 2 12 m 0.4 0.5 l 0.1 -0.5 a 0.5 0.5 0 1 1 0 1 z M 2 14 m 0.4 0.5 l 0.1 -0.5 a 0.5 0.5 0 1 1 0 1 z M 2 15 m 0.4 0.5 l 0.1 -0.5 a 0.5 0.5 0 1 1 0 1 z M 2 16 m 0.4 0.5 l 0.1 -0.5 a 0.5 0.5 0 1 1 0 1 z M 2 17 m 0.4 0.5 l 0.1 -0.5 a 0.5 0.5 0 1 1 0 1 z M 2 18 m 0.4 0.5 l 0.1 -0.5 a 0.5 0.5 0 1 1 0 1 z M 2 22 m 0.4 0.5 l 0.1 -0.5 a 0.5 0.5 0 1 1 0 1 z M 2 24 m 0.4 0.5 l 0.1 -0.5 a 0.5 0.5 0 1 1 0 1 z M 2 25 m 0.4 0.5 l 0.1 -0.5 a 0.5 0.5 0 1 1 0 1 z M 2 26 m 0.4 0.5 l 0.1 -0.5 a 0.5 0.5 0 1 1 0 1 z M 2 28 m 0.4 0.5 l 0.1 -0.5 a 0.5 0.5 0 1 1 0 1 z M 3 0 m 0.4 0.5 l 0.1 -0.5 a 0.5 0.5 0 1 1 0 1 z M 3 2 m 0.4 0.5 l 0.1 -0.5 a 0.5 0.5 0 1 1 0 1 z M 3 3 m 0.4 0.5 l 0.1 -0.5 a 0.5 0.5 0 1 1 0 1 z M 3 4 m 0.4 0.5 l 0.1 -0.5 a 0.5 0.5 0 1 1 0 1 z M 3 6 m 0.4 0.5 l 0.1 -0.5 a 0.5 0.5 0 1 1 0 1 z M 3 10 m 0.4 0.5 l 0.1 -0.5 a 0.5 0.5 0 1 1 0 1 z M 3 13 m 0.4 0.5 l 0.1 -0.5 a 0.5 0.5 0 1 1 0 1 z M 3 18 m 0.4 0.5 l 0.1 -0.5 a 0.5 0.5 0 1 1 0 1 z M 3 19 m 0.4 0.5 l 0.1 -0.5 a 0.5 0.5 0 1 1 0 1 z M 3 22 m 0.4 0.5 l 0.1 -0.5 a 0.5 0.5 0 1 1 0 1 z M 3 24 m 0.4 0.5 l 0.1 -0.5 a 0.5 0.5 0 1 1 0 1 z M 3 25 m 0.4 0.5 l 0.1 -0.5 a 0.5 0.5 0 1 1 0 1 z M 3 26 m 0.4 0.5 l 0.1 -0.5 a 0.5 0.5 0 1 1 0 1 z M 3 28 m 0.4 0.5 l 0.1 -0.5 a 0.5 0.5 0 1 1 0 1 z M 4 0 m 0.4 0.5 l 0.1 -0.5 a 0.5 0.5 0 1 1 0 1 z M 4 2 m 0.4 0.5 l 0.1 -0.5 a 0.5 0.5 0 1 1 0 1 z M 4 3 m 0.4 0.5 l 0.1 -0.5 a 0.5 0.5 0 1 1 0 1 z M 4 4 m 0.4 0.5 l 0.1 -0.5 a 0.5 0.5 0 1 1 0 1 z M 4 6 m 0.4 0.5 l 0.1 -0.5 a 0.5 0.5 0 1 1 0 1 z M 4 10 m 0.4 0.5 l 0.1 -0.5 a 0.5 0.5 0 1 1 0 1 z M 4 11 m 0.4 0.5 l 0.1 -0.5 a 0.5 0.5 0 1 1 0 1 z M 4 12 m 0.4 0.5 l 0.1 -0.5 a 0.5 0.5 0 1 1 0 1 z M 4 14 m 0.4 0.5 l 0.1 -0.5 a 0.5 0.5 0 1 1 0 1 z M 4 15 m 0.4 0.5 l 0.1 -0.5 a 0.5 0.5 0 1 1 0 1 z M 4 16 m 0.4 0.5 l 0.1 -0.5 a 0.5 0.5 0 1 1 0 1 z M 4 17 m 0.4 0.5 l 0.1 -0.5 a 0.5 0.5 0 1 1 0 1 z M 4 18 m 0.4 0.5 l 0.1 -0.5 a 0.5 0.5 0 1 1 0 1 z M 4 22 m 0.4 0.5 l 0.1 -0.5 a 0.5 0.5 0 1 1 0 1 z M 4 24 m 0.4 0.5 l 0.1 -0.5 a 0.5 0.5 0 1 1 0 1 z M 4 25 m 0.4 0.5 l 0.1 -0.5 a 0.5 0.5 0 1 1 0 1 z M 4 26 m 0.4 0.5 l 0.1 -0.5 a 0.5 0.5 0 1 1 0 1 z M 4 28 m 0.4 0.5 l 0.1 -0.5 a 0.5 0.5 0 1 1 0 1 z M 5 0 m 0.4 0.5 l 0.1 -0.5 a 0.5 0.5 0 1 1 0 1 z M 5 6 m 0.4 0.5 l 0.1 -0.5 a 0.5 0.5 0 1 1 0 1 z M 5 8 m 0.4 0.5 l 0.1 -0.5 a 0.5 0.5 0 1 1 0 1 z M 5 10 m 0.4 0.5 l 0.1 -0.5 a 0.5 0.5 0 1 1 0 1 z M 5 11 m 0.4 0.5 l 0.1 -0.5 a 0.5 0.5 0 1 1 0 1 z M 5 15 m 0.4 0.5 l 0.1 -0.5 a 0.5 0.5 0 1 1 0 1 z M 5 17 m 0.4 0.5 l 0.1 -0.5 a 0.5 0.5 0 1 1 0 1 z M 5 19 m 0.4 0.5 l 0.1 -0.5 a 0.5 0.5 0 1 1 0 1 z M 5 20 m 0.4 0.5 l 0.1 -0.5 a 0.5 0.5 0 1 1 0 1 z M 5 22 m 0.4 0.5 l 0.1 -0.5 a 0.5 0.5 0 1 1 0 1 z M 5 28 m 0.4 0.5 l 0.1 -0.5 a 0.5 0.5 0 1 1 0 1 z M 6 0 m 0.4 0.5 l 0.1 -0.5 a 0.5 0.5 0 1 1 0 1 z M 6 1 m 0.4 0.5 l 0.1 -0.5 a 0.5 0.5 0 1 1 0 1 z M 6 2 m 0.4 0.5 l 0.1 -0.5 a 0.5 0.5 0 1 1 0 1 z M 6 3 m 0.4 0.5 l 0.1 -0.5 a 0.5 0.5 0 1 1 0 1 z M 6 4 m 0.4 0.5 l 0.1 -0.5 a 0.5 0.5 0 1 1 0 1 z M 6 5 m 0.4 0.5 l 0.1 -0.5 a 0.5 0.5 0 1 1 0 1 z M 6 6 m 0.4 0.5 l 0.1 -0.5 a 0.5 0.5 0 1 1 0 1 z M 6 8 m 0.4 0.5 l 0.1 -0.5 a 0.5 0.5 0 1 1 0 1 z M 6 10 m 0.4 0.5 l 0.1 -0.5 a 0.5 0.5 0 1 1 0 1 z M 6 12 m 0.4 0.5 l 0.1 -0.5 a 0.5 0.5 0 1 1 0 1 z M 6 14 m 0.4 0.5 l 0.1 -0.5 a 0.5 0.5 0 1 1 0 1 z M 6 16 m 0.4 0.5 l 0.1 -0.5 a 0.5 0.5 0 1 1 0 1 z M 6 18 m 0.4 0.5 l 0.1 -0.5 a 0.5 0.5 0 1 1 0 1 z M 6 20 m 0.4 0.5 l 0.1 -0.5 a 0.5 0.5 0 1 1 0 1 z M 6 22 m 0.4 0.5 l 0.1 -0.5 a 0.5 0.5 0 1 1 0 1 z M 6 23 m 0.4 0.5 l 0.1 -0.5 a 0.5 0.5 0 1 1 0 1 z M 6 24 m 0.4 0.5 l 0.1 -0.5 a 0.5 0.5 0 1 1 0 1 z M 6 25 m 0.4 0.5 l 0.1 -0.5 a 0.5 0.5 0 1 1 0 1 z M 6 26 m 0.4 0.5 l 0.1 -0.5 a 0.5 0.5 0 1 1 0 1 z M 6 27 m 0.4 0.5 l 0.1 -0.5 a 0.5 0.5 0 1 1 0 1 z M 6 28 m 0.4 0.5 l 0.1 -0.5 a 0.5 0.5 0 1 1 0 1 z M 7 11 m 0.4 0.5 l 0.1 -0.5 a 0.5 0.5 0 1 1 0 1 z M 7 12 m 0.4 0.5 l 0.1 -0.5 a 0.5 0.5 0 1 1 0 1 z M 7 13 m 0.4 0.5 l 0.1 -0.5 a 0.5 0.5 0 1 1 0 1 z M 7 17 m 0.4 0.5 l 0.1 -0.5 a 0.5 0.5 0 1 1 0 1 z M 7 18 m 0.4 0.5 l 0.1 -0.5 a 0.5 0.5 0 1 1 0 1 z M 7 19 m 0.4 0.5 l 0.1 -0.5 a 0.5 0.5 0 1 1 0 1 z M 8 0 m 0.4 0.5 l 0.1 -0.5 a 0.5 0.5 0 1 1 0 1 z M 8 3 m 0.4 0.5 l 0.1 -0.5 a 0.5 0.5 0 1 1 0 1 z M 8 5 m 0.4 0.5 l 0.1 -0.5 a 0.5 0.5 0 1 1 0 1 z M 8 6 m 0.4 0.5 l 0.1 -0.5 a 0.5 0.5 0 1 1 0 1 z M 8 8 m 0.4 0.5 l 0.1 -0.5 a 0.5 0.5 0 1 1 0 1 z M 8 10 m 0.4 0.5 l 0.1 -0.5 a 0.5 0.5 0 1 1 0 1 z M 8 11 m 0.4 0.5 l 0.1 -0.5 a 0.5 0.5 0 1 1 0 1 z M 8 14 m 0.4 0.5 l 0.1 -0.5 a 0.5 0.5 0 1 1 0 1 z M 8 15 m 0.4 0.5 l 0.1 -0.5 a 0.5 0.5 0 1 1 0 1 z M 8 16 m 0.4 0.5 l 0.1 -0.5 a 0.5 0.5 0 1 1 0 1 z M 8 19 m 0.4 0.5 l 0.1 -0.5 a 0.5 0.5 0 1 1 0 1 z M 8 20 m 0.4 0.5 l 0.1 -0.5 a 0.5 0.5 0 1 1 0 1 z M 8 21 m 0.4 0.5 l 0.1 -0.5 a 0.5 0.5 0 1 1 0 1 z M 8 23 m 0.4 0.5 l 0.1 -0.5 a 0.5 0.5 0 1 1 0 1 z M 9 2 m 0.4 0.5 l 0.1 -0.5 a 0.5 0.5 0 1 1 0 1 z M 9 4 m 0.4 0.5 l 0.1 -0.5 a 0.5 0.5 0 1 1 0 1 z M 9 7 m 0.4 0.5 l 0.1 -0.5 a 0.5 0.5 0 1 1 0 1 z M 9 8 m 0.4 0.5 l 0.1 -0.5 a 0.5 0.5 0 1 1 0 1 z M 9 9 m 0.4 0.5 l 0.1 -0.5 a 0.5 0.5 0 1 1 0 1 z M 9 10 m 0.4 0.5 l 0.1 -0.5 a 0.5 0.5 0 1 1 0 1 z M 9 12 m 0.4 0.5 l 0.1 -0.5 a 0.5 0.5 0 1 1 0 1 z M 9 13 m 0.4 0.5 l 0.1 -0.5 a 0.5 0.5 0 1 1 0 1 z M 9 17 m 0.4 0.5 l 0.1 -0.5 a 0.5 0.5 0 1 1 0 1 z M 9 20 m 0.4 0.5 l 0.1 -0.5 a 0.5 0.5 0 1 1 0 1 z M 9 22 m 0.4 0.5 l 0.1 -0.5 a 0.5 0.5 0 1 1 0 1 z M 9 25 m 0.4 0.5 l 0.1 -0.5 a 0.5 0.5 0 1 1 0 1 z M 9 28 m 0.4 0.5 l 0.1 -0.5 a 0.5 0.5 0 1 1 0 1 z M 10 2 m 0.4 0.5 l 0.1 -0.5 a 0.5 0.5 0 1 1 0 1 z M 10 4 m 0.4 0.5 l 0.1 -0.5 a 0.5 0.5 0 1 1 0 1 z M 10 6 m 0.4 0.5 l 0.1 -0.5 a 0.5 0.5 0 1 1 0 1 z M 10 8 m 0.4 0.5 l 0.1 -0.5 a 0.5 0.5 0 1 1 0 1 z M 10 9 m 0.4 0.5 l 0.1 -0.5 a 0.5 0.5 0 1 1 0 1 z M 10 11 m 0.4 0.5 l 0.1 -0.5 a 0.5 0.5 0 1 1 0 1 z M 10 13 m 0.4 0.5 l 0.1 -0.5 a 0.5 0.5 0 1 1 0 1 z M 10 14 m 0.4 0.5 l 0.1 -0.5 a 0.5 0.5 0 1 1 0 1 z M 10 18 m 0.4 0.5 l 0.1 -0.5 a 0.5 0.5 0 1 1 0 1 z M 10 19 m 0.4 0.5 l 0.1 -0.5 a 0.5 0.5 0 1 1 0 1 z M 10 21 m 0.4 0.5 l 0.1 -0.5 a 0.5 0.5 0 1 1 0 1 z M 10 24 m 0.4 0.5 l 0.1 -0.5 a 0.5 0.5 0 1 1 0 1 z M 10 25 m 0.4 0.5 l 0.1 -0.5 a 0.5 0.5 0 1 1 0 1 z M 10 26 m 0.4 0.5 l 0.1 -0.5 a 0.5 0.5 0 1 1 0 1 z M 10 27 m 0.4 0.5 l 0.1 -0.5 a 0.5 0.5 0 1 1 0 1 z M 11 1 m 0.4 0.5 l 0.1 -0.5 a 0.5 0.5 0 1 1 0 1 z M 11 3 m 0.4 0.5 l 0.1 -0.5 a 0.5 0.5 0 1 1 0 1 z M 11 5 m 0.4 0.5 l 0.1 -0.5 a 0.5 0.5 0 1 1 0 1 z M 11 7 m 0.4 0.5 l 0.1 -0.5 a 0.5 0.5 0 1 1 0 1 z M 11 8 m 0.4 0.5 l 0.1 -0.5 a 0.5 0.5 0 1 1 0 1 z M 11 13 m 0.4 0.5 l 0.1 -0.5 a 0.5 0.5 0 1 1 0 1 z M 11 18 m 0.4 0.5 l 0.1 -0.5 a 0.5 0.5 0 1 1 0 1 z M 11 19 m 0.4 0.5 l 0.1 -0.5 a 0.5 0.5 0 1 1 0 1 z M 11 20 m 0.4 0.5 l 0.1 -0.5 a 0.5 0.5 0 1 1 0 1 z M 11 24 m 0.4 0.5 l 0.1 -0.5 a 0.5 0.5 0 1 1 0 1 z M 11 26 m 0.4 0.5 l 0.1 -0.5 a 0.5 0.5 0 1 1 0 1 z M 11 27 m 0.4 0.5 l 0.1 -0.5 a 0.5 0.5 0 1 1 0 1 z M 12 0 m 0.4 0.5 l 0.1 -0.5 a 0.5 0.5 0 1 1 0 1 z M 12 1 m 0.4 0.5 l 0.1 -0.5 a 0.5 0.5 0 1 1 0 1 z M 12 2 m 0.4 0.5 l 0.1 -0.5 a 0.5 0.5 0 1 1 0 1 z M 12 6 m 0.4 0.5 l 0.1 -0.5 a 0.5 0.5 0 1 1 0 1 z M 12 7 m 0.4 0.5 l 0.1 -0.5 a 0.5 0.5 0 1 1 0 1 z M 12 11 m 0.4 0.5 l 0.1 -0.5 a 0.5 0.5 0 1 1 0 1 z M 12 12 m 0.4 0.5 l 0.1 -0.5 a 0.5 0.5 0 1 1 0 1 z M 12 14 m 0.4 0.5 l 0.1 -0.5 a 0.5 0.5 0 1 1 0 1 z M 12 17 m 0.4 0.5 l 0.1 -0.5 a 0.5 0.5 0 1 1 0 1 z M 12 20 m 0.4 0.5 l 0.1 -0.5 a 0.5 0.5 0 1 1 0 1 z M 12 21 m 0.4 0.5 l 0.1 -0.5 a 0.5 0.5 0 1 1 0 1 z M 12 22 m 0.4 0.5 l 0.1 -0.5 a 0.5 0.5 0 1 1 0 1 z M 12 25 m 0.4 0.5 l 0.1 -0.5 a 0.5 0.5 0 1 1 0 1 z M 12 27 m 0.4 0.5 l 0.1 -0.5 a 0.5 0.5 0 1 1 0 1 z M 12 28 m 0.4 0.5 l 0.1 -0.5 a 0.5 0.5 0 1 1 0 1 z M 13 0 m 0.4 0.5 l 0.1 -0.5 a 0.5 0.5 0 1 1 0 1 z M 13 2 m 0.4 0.5 l 0.1 -0.5 a 0.5 0.5 0 1 1 0 1 z M 13 7 m 0.4 0.5 l 0.1 -0.5 a 0.5 0.5 0 1 1 0 1 z M 13 8 m 0.4 0.5 l 0.1 -0.5 a 0.5 0.5 0 1 1 0 1 z M 13 10 m 0.4 0.5 l 0.1 -0.5 a 0.5 0.5 0 1 1 0 1 z M 13 11 m 0.4 0.5 l 0.1 -0.5 a 0.5 0.5 0 1 1 0 1 z M 13 13 m 0.4 0.5 l 0.1 -0.5 a 0.5 0.5 0 1 1 0 1 z M 13 14 m 0.4 0.5 l 0.1 -0.5 a 0.5 0.5 0 1 1 0 1 z M 13 19 m 0.4 0.5 l 0.1 -0.5 a 0.5 0.5 0 1 1 0 1 z M 13 20 m 0.4 0.5 l 0.1 -0.5 a 0.5 0.5 0 1 1 0 1 z M 13 21 m 0.4 0.5 l 0.1 -0.5 a 0.5 0.5 0 1 1 0 1 z M 14 0 m 0.4 0.5 l 0.1 -0.5 a 0.5 0.5 0 1 1 0 1 z M 14 1 m 0.4 0.5 l 0.1 -0.5 a 0.5 0.5 0 1 1 0 1 z M 14 3 m 0.4 0.5 l 0.1 -0.5 a 0.5 0.5 0 1 1 0 1 z M 14 4 m 0.4 0.5 l 0.1 -0.5 a 0.5 0.5 0 1 1 0 1 z M 14 6 m 0.4 0.5 l 0.1 -0.5 a 0.5 0.5 0 1 1 0 1 z M 14 7 m 0.4 0.5 l 0.1 -0.5 a 0.5 0.5 0 1 1 0 1 z M 14 9 m 0.4 0.5 l 0.1 -0.5 a 0.5 0.5 0 1 1 0 1 z M 14 10 m 0.4 0.5 l 0.1 -0.5 a 0.5 0.5 0 1 1 0 1 z M 14 13 m 0.4 0.5 l 0.1 -0.5 a 0.5 0.5 0 1 1 0 1 z M 14 14 m 0.4 0.5 l 0.1 -0.5 a 0.5 0.5 0 1 1 0 1 z M 14 17 m 0.4 0.5 l 0.1 -0.5 a 0.5 0.5 0 1 1 0 1 z M 14 20 m 0.4 0.5 l 0.1 -0.5 a 0.5 0.5 0 1 1 0 1 z M 14 22 m 0.4 0.5 l 0.1 -0.5 a 0.5 0.5 0 1 1 0 1 z M 14 23 m 0.4 0.5 l 0.1 -0.5 a 0.5 0.5 0 1 1 0 1 z M 14 24 m 0.4 0.5 l 0.1 -0.5 a 0.5 0.5 0 1 1 0 1 z M 14 25 m 0.4 0.5 l 0.1 -0.5 a 0.5 0.5 0 1 1 0 1 z M 14 26 m 0.4 0.5 l 0.1 -0.5 a 0.5 0.5 0 1 1 0 1 z M 14 27 m 0.4 0.5 l 0.1 -0.5 a 0.5 0.5 0 1 1 0 1 z M 14 28 m 0.4 0.5 l 0.1 -0.5 a 0.5 0.5 0 1 1 0 1 z M 15 2 m 0.4 0.5 l 0.1 -0.5 a 0.5 0.5 0 1 1 0 1 z M 15 7 m 0.4 0.5 l 0.1 -0.5 a 0.5 0.5 0 1 1 0 1 z M 15 8 m 0.4 0.5 l 0.1 -0.5 a 0.5 0.5 0 1 1 0 1 z M 15 9 m 0.4 0.5 l 0.1 -0.5 a 0.5 0.5 0 1 1 0 1 z M 15 10 m 0.4 0.5 l 0.1 -0.5 a 0.5 0.5 0 1 1 0 1 z M 15 12 m 0.4 0.5 l 0.1 -0.5 a 0.5 0.5 0 1 1 0 1 z M 15 15 m 0.4 0.5 l 0.1 -0.5 a 0.5 0.5 0 1 1 0 1 z M 15 17 m 0.4 0.5 l 0.1 -0.5 a 0.5 0.5 0 1 1 0 1 z M 15 18 m 0.4 0.5 l 0.1 -0.5 a 0.5 0.5 0 1 1 0 1 z M 15 20 m 0.4 0.5 l 0.1 -0.5 a 0.5 0.5 0 1 1 0 1 z M 15 21 m 0.4 0.5 l 0.1 -0.5 a 0.5 0.5 0 1 1 0 1 z M 15 22 m 0.4 0.5 l 0.1 -0.5 a 0.5 0.5 0 1 1 0 1 z M 15 25 m 0.4 0.5 l 0.1 -0.5 a 0.5 0.5 0 1 1 0 1 z M 15 27 m 0.4 0.5 l 0.1 -0.5 a 0.5 0.5 0 1 1 0 1 z M 16 5 m 0.4 0.5 l 0.1 -0.5 a 0.5 0.5 0 1 1 0 1 z M 16 6 m 0.4 0.5 l 0.1 -0.5 a 0.5 0.5 0 1 1 0 1 z M 16 8 m 0.4 0.5 l 0.1 -0.5 a 0.5 0.5 0 1 1 0 1 z M 16 12 m 0.4 0.5 l 0.1 -0.5 a 0.5 0.5 0 1 1 0 1 z M 16 13 m 0.4 0.5 l 0.1 -0.5 a 0.5 0.5 0 1 1 0 1 z M 16 16 m 0.4 0.5 l 0.1 -0.5 a 0.5 0.5 0 1 1 0 1 z M 16 17 m 0.4 0.5 l 0.1 -0.5 a 0.5 0.5 0 1 1 0 1 z M 16 20 m 0.4 0.5 l 0.1 -0.5 a 0.5 0.5 0 1 1 0 1 z M 16 23 m 0.4 0.5 l 0.1 -0.5 a 0.5 0.5 0 1 1 0 1 z M 16 27 m 0.4 0.5 l 0.1 -0.5 a 0.5 0.5 0 1 1 0 1 z M 17 2 m 0.4 0.5 l 0.1 -0.5 a 0.5 0.5 0 1 1 0 1 z M 17 3 m 0.4 0.5 l 0.1 -0.5 a 0.5 0.5 0 1 1 0 1 z M 17 5 m 0.4 0.5 l 0.1 -0.5 a 0.5 0.5 0 1 1 0 1 z M 17 9 m 0.4 0.5 l 0.1 -0.5 a 0.5 0.5 0 1 1 0 1 z M 17 10 m 0.4 0.5 l 0.1 -0.5 a 0.5 0.5 0 1 1 0 1 z M 17 13 m 0.4 0.5 l 0.1 -0.5 a 0.5 0.5 0 1 1 0 1 z M 17 14 m 0.4 0.5 l 0.1 -0.5 a 0.5 0.5 0 1 1 0 1 z M 17 16 m 0.4 0.5 l 0.1 -0.5 a 0.5 0.5 0 1 1 0 1 z M 17 20 m 0.4 0.5 l 0.1 -0.5 a 0.5 0.5 0 1 1 0 1 z M 17 21 m 0.4 0.5 l 0.1 -0.5 a 0.5 0.5 0 1 1 0 1 z M 17 22 m 0.4 0.5 l 0.1 -0.5 a 0.5 0.5 0 1 1 0 1 z M 17 23 m 0.4 0.5 l 0.1 -0.5 a 0.5 0.5 0 1 1 0 1 z M 17 25 m 0.4 0.5 l 0.1 -0.5 a 0.5 0.5 0 1 1 0 1 z M 17 28 m 0.4 0.5 l 0.1 -0.5 a 0.5 0.5 0 1 1 0 1 z M 18 0 m 0.4 0.5 l 0.1 -0.5 a 0.5 0.5 0 1 1 0 1 z M 18 2 m 0.4 0.5 l 0.1 -0.5 a 0.5 0.5 0 1 1 0 1 z M 18 3 m 0.4 0.5 l 0.1 -0.5 a 0.5 0.5 0 1 1 0 1 z M 18 6 m 0.4 0.5 l 0.1 -0.5 a 0.5 0.5 0 1 1 0 1 z M 18 9 m 0.4 0.5 l 0.1 -0.5 a 0.5 0.5 0 1 1 0 1 z M 18 11 m 0.4 0.5 l 0.1 -0.5 a 0.5 0.5 0 1 1 0 1 z M 18 14 m 0.4 0.5 l 0.1 -0.5 a 0.5 0.5 0 1 1 0 1 z M 18 18 m 0.4 0.5 l 0.1 -0.5 a 0.5 0.5 0 1 1 0 1 z M 18 21 m 0.4 0.5 l 0.1 -0.5 a 0.5 0.5 0 1 1 0 1 z M 18 23 m 0.4 0.5 l 0.1 -0.5 a 0.5 0.5 0 1 1 0 1 z M 18 24 m 0.4 0.5 l 0.1 -0.5 a 0.5 0.5 0 1 1 0 1 z M 18 27 m 0.4 0.5 l 0.1 -0.5 a 0.5 0.5 0 1 1 0 1 z M 18 28 m 0.4 0.5 l 0.1 -0.5 a 0.5 0.5 0 1 1 0 1 z M 19 2 m 0.4 0.5 l 0.1 -0.5 a 0.5 0.5 0 1 1 0 1 z M 19 3 m 0.4 0.5 l 0.1 -0.5 a 0.5 0.5 0 1 1 0 1 z M 19 4 m 0.4 0.5 l 0.1 -0.5 a 0.5 0.5 0 1 1 0 1 z M 19 8 m 0.4 0.5 l 0.1 -0.5 a 0.5 0.5 0 1 1 0 1 z M 19 9 m 0.4 0.5 l 0.1 -0.5 a 0.5 0.5 0 1 1 0 1 z M 19 10 m 0.4 0.5 l 0.1 -0.5 a 0.5 0.5 0 1 1 0 1 z M 19 12 m 0.4 0.5 l 0.1 -0.5 a 0.5 0.5 0 1 1 0 1 z M 19 14 m 0.4 0.5 l 0.1 -0.5 a 0.5 0.5 0 1 1 0 1 z M 19 17 m 0.4 0.5 l 0.1 -0.5 a 0.5 0.5 0 1 1 0 1 z M 19 18 m 0.4 0.5 l 0.1 -0.5 a 0.5 0.5 0 1 1 0 1 z M 19 20 m 0.4 0.5 l 0.1 -0.5 a 0.5 0.5 0 1 1 0 1 z M 19 21 m 0.4 0.5 l 0.1 -0.5 a 0.5 0.5 0 1 1 0 1 z M 19 23 m 0.4 0.5 l 0.1 -0.5 a 0.5 0.5 0 1 1 0 1 z M 19 24 m 0.4 0.5 l 0.1 -0.5 a 0.5 0.5 0 1 1 0 1 z M 19 27 m 0.4 0.5 l 0.1 -0.5 a 0.5 0.5 0 1 1 0 1 z M 19 28 m 0.4 0.5 l 0.1 -0.5 a 0.5 0.5 0 1 1 0 1 z M 20 0 m 0.4 0.5 l 0.1 -0.5 a 0.5 0.5 0 1 1 0 1 z M 20 2 m 0.4 0.5 l 0.1 -0.5 a 0.5 0.5 0 1 1 0 1 z M 20 5 m 0.4 0.5 l 0.1 -0.5 a 0.5 0.5 0 1 1 0 1 z M 20 6 m 0.4 0.5 l 0.1 -0.5 a 0.5 0.5 0 1 1 0 1 z M 20 10 m 0.4 0.5 l 0.1 -0.5 a 0.5 0.5 0 1 1 0 1 z M 20 11 m 0.4 0.5 l 0.1 -0.5 a 0.5 0.5 0 1 1 0 1 z M 20 16 m 0.4 0.5 l 0.1 -0.5 a 0.5 0.5 0 1 1 0 1 z M 20 19 m 0.4 0.5 l 0.1 -0.5 a 0.5 0.5 0 1 1 0 1 z M 20 20 m 0.4 0.5 l 0.1 -0.5 a 0.5 0.5 0 1 1 0 1 z M 20 21 m 0.4 0.5 l 0.1 -0.5 a 0.5 0.5 0 1 1 0 1 z M 20 22 m 0.4 0.5 l 0.1 -0.5 a 0.5 0.5 0 1 1 0 1 z M 20 23 m 0.4 0.5 l 0.1 -0.5 a 0.5 0.5 0 1 1 0 1 z M 20 24 m 0.4 0.5 l 0.1 -0.5 a 0.5 0.5 0 1 1 0 1 z M 20 26 m 0.4 0.5 l 0.1 -0.5 a 0.5 0.5 0 1 1 0 1 z M 21 8 m 0.4 0.5 l 0.1 -0.5 a 0.5 0.5 0 1 1 0 1 z M 21 9 m 0.4 0.5 l 0.1 -0.5 a 0.5 0.5 0 1 1 0 1 z M 21 14 m 0.4 0.5 l 0.1 -0.5 a 0.5 0.5 0 1 1 0 1 z M 21 16 m 0.4 0.5 l 0.1 -0.5 a 0.5 0.5 0 1 1 0 1 z M 21 18 m 0.4 0.5 l 0.1 -0.5 a 0.5 0.5 0 1 1 0 1 z M 21 19 m 0.4 0.5 l 0.1 -0.5 a 0.5 0.5 0 1 1 0 1 z M 21 20 m 0.4 0.5 l 0.1 -0.5 a 0.5 0.5 0 1 1 0 1 z M 21 24 m 0.4 0.5 l 0.1 -0.5 a 0.5 0.5 0 1 1 0 1 z M 21 26 m 0.4 0.5 l 0.1 -0.5 a 0.5 0.5 0 1 1 0 1 z M 21 27 m 0.4 0.5 l 0.1 -0.5 a 0.5 0.5 0 1 1 0 1 z M 21 28 m 0.4 0.5 l 0.1 -0.5 a 0.5 0.5 0 1 1 0 1 z M 22 0 m 0.4 0.5 l 0.1 -0.5 a 0.5 0.5 0 1 1 0 1 z M 22 1 m 0.4 0.5 l 0.1 -0.5 a 0.5 0.5 0 1 1 0 1 z M 22 2 m 0.4 0.5 l 0.1 -0.5 a 0.5 0.5 0 1 1 0 1 z M 22 3 m 0.4 0.5 l 0.1 -0.5 a 0.5 0.5 0 1 1 0 1 z M 22 4 m 0.4 0.5 l 0.1 -0.5 a 0.5 0.5 0 1 1 0 1 z M 22 5 m 0.4 0.5 l 0.1 -0.5 a 0.5 0.5 0 1 1 0 1 z M 22 6 m 0.4 0.5 l 0.1 -0.5 a 0.5 0.5 0 1 1 0 1 z M 22 9 m 0.4 0.5 l 0.1 -0.5 a 0.5 0.5 0 1 1 0 1 z M 22 11 m 0.4 0.5 l 0.1 -0.5 a 0.5 0.5 0 1 1 0 1 z M 22 12 m 0.4 0.5 l 0.1 -0.5 a 0.5 0.5 0 1 1 0 1 z M 22 17 m 0.4 0.5 l 0.1 -0.5 a 0.5 0.5 0 1 1 0 1 z M 22 18 m 0.4 0.5 l 0.1 -0.5 a 0.5 0.5 0 1 1 0 1 z M 22 20 m 0.4 0.5 l 0.1 -0.5 a 0.5 0.5 0 1 1 0 1 z M 22 22 m 0.4 0.5 l 0.1 -0.5 a 0.5 0.5 0 1 1 0 1 z M 22 24 m 0.4 0.5 l 0.1 -0.5 a 0.5 0.5 0 1 1 0 1 z M 22 27 m 0.4 0.5 l 0.1 -0.5 a 0.5 0.5 0 1 1 0 1 z M 23 0 m 0.4 0.5 l 0.1 -0.5 a 0.5 0.5 0 1 1 0 1 z M 23 6 m 0.4 0.5 l 0.1 -0.5 a 0.5 0.5 0 1 1 0 1 z M 23 8 m 0.4 0.5 l 0.1 -0.5 a 0.5 0.5 0 1 1 0 1 z M 23 9 m 0.4 0.5 l 0.1 -0.5 a 0.5 0.5 0 1 1 0 1 z M 23 11 m 0.4 0.5 l 0.1 -0.5 a 0.5 0.5 0 1 1 0 1 z M 23 12 m 0.4 0.5 l 0.1 -0.5 a 0.5 0.5 0 1 1 0 1 z M 23 14 m 0.4 0.5 l 0.1 -0.5 a 0.5 0.5 0 1 1 0 1 z M 23 16 m 0.4 0.5 l 0.1 -0.5 a 0.5 0.5 0 1 1 0 1 z M 23 20 m 0.4 0.5 l 0.1 -0.5 a 0.5 0.5 0 1 1 0 1 z M 23 24 m 0.4 0.5 l 0.1 -0.5 a 0.5 0.5 0 1 1 0 1 z M 23 25 m 0.4 0.5 l 0.1 -0.5 a 0.5 0.5 0 1 1 0 1 z M 23 26 m 0.4 0.5 l 0.1 -0.5 a 0.5 0.5 0 1 1 0 1 z M 24 0 m 0.4 0.5 l 0.1 -0.5 a 0.5 0.5 0 1 1 0 1 z M 24 2 m 0.4 0.5 l 0.1 -0.5 a 0.5 0.5 0 1 1 0 1 z M 24 3 m 0.4 0.5 l 0.1 -0.5 a 0.5 0.5 0 1 1 0 1 z M 24 4 m 0.4 0.5 l 0.1 -0.5 a 0.5 0.5 0 1 1 0 1 z M 24 6 m 0.4 0.5 l 0.1 -0.5 a 0.5 0.5 0 1 1 0 1 z M 24 11 m 0.4 0.5 l 0.1 -0.5 a 0.5 0.5 0 1 1 0 1 z M 24 17 m 0.4 0.5 l 0.1 -0.5 a 0.5 0.5 0 1 1 0 1 z M 24 18 m 0.4 0.5 l 0.1 -0.5 a 0.5 0.5 0 1 1 0 1 z M 24 20 m 0.4 0.5 l 0.1 -0.5 a 0.5 0.5 0 1 1 0 1 z M 24 21 m 0.4 0.5 l 0.1 -0.5 a 0.5 0.5 0 1 1 0 1 z M 24 22 m 0.4 0.5 l 0.1 -0.5 a 0.5 0.5 0 1 1 0 1 z M 24 23 m 0.4 0.5 l 0.1 -0.5 a 0.5 0.5 0 1 1 0 1 z M 24 24 m 0.4 0.5 l 0.1 -0.5 a 0.5 0.5 0 1 1 0 1 z M 24 27 m 0.4 0.5 l 0.1 -0.5 a 0.5 0.5 0 1 1 0 1 z M 24 28 m 0.4 0.5 l 0.1 -0.5 a 0.5 0.5 0 1 1 0 1 z M 25 0 m 0.4 0.5 l 0.1 -0.5 a 0.5 0.5 0 1 1 0 1 z M 25 2 m 0.4 0.5 l 0.1 -0.5 a 0.5 0.5 0 1 1 0 1 z M 25 3 m 0.4 0.5 l 0.1 -0.5 a 0.5 0.5 0 1 1 0 1 z M 25 4 m 0.4 0.5 l 0.1 -0.5 a 0.5 0.5 0 1 1 0 1 z M 25 6 m 0.4 0.5 l 0.1 -0.5 a 0.5 0.5 0 1 1 0 1 z M 25 8 m 0.4 0.5 l 0.1 -0.5 a 0.5 0.5 0 1 1 0 1 z M 25 10 m 0.4 0.5 l 0.1 -0.5 a 0.5 0.5 0 1 1 0 1 z M 25 11 m 0.4 0.5 l 0.1 -0.5 a 0.5 0.5 0 1 1 0 1 z M 25 13 m 0.4 0.5 l 0.1 -0.5 a 0.5 0.5 0 1 1 0 1 z M 25 19 m 0.4 0.5 l 0.1 -0.5 a 0.5 0.5 0 1 1 0 1 z M 25 20 m 0.4 0.5 l 0.1 -0.5 a 0.5 0.5 0 1 1 0 1 z M 25 22 m 0.4 0.5 l 0.1 -0.5 a 0.5 0.5 0 1 1 0 1 z M 25 23 m 0.4 0.5 l 0.1 -0.5 a 0.5 0.5 0 1 1 0 1 z M 25 24 m 0.4 0.5 l 0.1 -0.5 a 0.5 0.5 0 1 1 0 1 z M 25 25 m 0.4 0.5 l 0.1 -0.5 a 0.5 0.5 0 1 1 0 1 z M 25 26 m 0.4 0.5 l 0.1 -0.5 a 0.5 0.5 0 1 1 0 1 z M 25 27 m 0.4 0.5 l 0.1 -0.5 a 0.5 0.5 0 1 1 0 1 z M 26 0 m 0.4 0.5 l 0.1 -0.5 a 0.5 0.5 0 1 1 0 1 z M 26 2 m 0.4 0.5 l 0.1 -0.5 a 0.5 0.5 0 1 1 0 1 z M 26 3 m 0.4 0.5 l 0.1 -0.5 a 0.5 0.5 0 1 1 0 1 z M 26 4 m 0.4 0.5 l 0.1 -0.5 a 0.5 0.5 0 1 1 0 1 z M 26 6 m 0.4 0.5 l 0.1 -0.5 a 0.5 0.5 0 1 1 0 1 z M 26 9 m 0.4 0.5 l 0.1 -0.5 a 0.5 0.5 0 1 1 0 1 z M 26 10 m 0.4 0.5 l 0.1 -0.5 a 0.5 0.5 0 1 1 0 1 z M 26 11 m 0.4 0.5 l 0.1 -0.5 a 0.5 0.5 0 1 1 0 1 z M 26 13 m 0.4 0.5 l 0.1 -0.5 a 0.5 0.5 0 1 1 0 1 z M 26 19 m 0.4 0.5 l 0.1 -0.5 a 0.5 0.5 0 1 1 0 1 z M 26 20 m 0.4 0.5 l 0.1 -0.5 a 0.5 0.5 0 1 1 0 1 z M 26 24 m 0.4 0.5 l 0.1 -0.5 a 0.5 0.5 0 1 1 0 1 z M 26 25 m 0.4 0.5 l 0.1 -0.5 a 0.5 0.5 0 1 1 0 1 z M 26 26 m 0.4 0.5 l 0.1 -0.5 a 0.5 0.5 0 1 1 0 1 z M 26 28 m 0.4 0.5 l 0.1 -0.5 a 0.5 0.5 0 1 1 0 1 z M 27 0 m 0.4 0.5 l 0.1 -0.5 a 0.5 0.5 0 1 1 0 1 z M 27 6 m 0.4 0.5 l 0.1 -0.5 a 0.5 0.5 0 1 1 0 1 z M 27 9 m 0.4 0.5 l 0.1 -0.5 a 0.5 0.5 0 1 1 0 1 z M 27 10 m 0.4 0.5 l 0.1 -0.5 a 0.5 0.5 0 1 1 0 1 z M 27 13 m 0.4 0.5 l 0.1 -0.5 a 0.5 0.5 0 1 1 0 1 z M 27 14 m 0.4 0.5 l 0.1 -0.5 a 0.5 0.5 0 1 1 0 1 z M 27 17 m 0.4 0.5 l 0.1 -0.5 a 0.5 0.5 0 1 1 0 1 z M 27 18 m 0.4 0.5 l 0.1 -0.5 a 0.5 0.5 0 1 1 0 1 z M 27 19 m 0.4 0.5 l 0.1 -0.5 a 0.5 0.5 0 1 1 0 1 z M 27 20 m 0.4 0.5 l 0.1 -0.5 a 0.5 0.5 0 1 1 0 1 z M 27 21 m 0.4 0.5 l 0.1 -0.5 a 0.5 0.5 0 1 1 0 1 z M 27 24 m 0.4 0.5 l 0.1 -0.5 a 0.5 0.5 0 1 1 0 1 z M 27 27 m 0.4 0.5 l 0.1 -0.5 a 0.5 0.5 0 1 1 0 1 z M 28 0 m 0.4 0.5 l 0.1 -0.5 a 0.5 0.5 0 1 1 0 1 z M 28 1 m 0.4 0.5 l 0.1 -0.5 a 0.5 0.5 0 1 1 0 1 z M 28 2 m 0.4 0.5 l 0.1 -0.5 a 0.5 0.5 0 1 1 0 1 z M 28 3 m 0.4 0.5 l 0.1 -0.5 a 0.5 0.5 0 1 1 0 1 z M 28 4 m 0.4 0.5 l 0.1 -0.5 a 0.5 0.5 0 1 1 0 1 z M 28 5 m 0.4 0.5 l 0.1 -0.5 a 0.5 0.5 0 1 1 0 1 z M 28 6 m 0.4 0.5 l 0.1 -0.5 a 0.5 0.5 0 1 1 0 1 z M 28 8 m 0.4 0.5 l 0.1 -0.5 a 0.5 0.5 0 1 1 0 1 z M 28 9 m 0.4 0.5 l 0.1 -0.5 a 0.5 0.5 0 1 1 0 1 z M 28 10 m 0.4 0.5 l 0.1 -0.5 a 0.5 0.5 0 1 1 0 1 z M 28 13 m 0.4 0.5 l 0.1 -0.5 a 0.5 0.5 0 1 1 0 1 z M 28 14 m 0.4 0.5 l 0.1 -0.5 a 0.5 0.5 0 1 1 0 1 z M 28 16 m 0.4 0.5 l 0.1 -0.5 a 0.5 0.5 0 1 1 0 1 z M 28 17 m 0.4 0.5 l 0.1 -0.5 a 0.5 0.5 0 1 1 0 1 z M 28 20 m 0.4 0.5 l 0.1 -0.5 a 0.5 0.5 0 1 1 0 1 z M 28 21 m 0.4 0.5 l 0.1 -0.5 a 0.5 0.5 0 1 1 0 1 z M 28 22 m 0.4 0.5 l 0.1 -0.5 a 0.5 0.5 0 1 1 0 1 z M 28 23 m 0.4 0.5 l 0.1 -0.5 a 0.5 0.5 0 1 1 0 1 z M 28 24 m 0.4 0.5 l 0.1 -0.5 a 0.5 0.5 0 1 1 0 1 z M 28 25 m 0.4 0.5 l 0.1 -0.5 a 0.5 0.5 0 1 1 0 1 z M 28 27 m 0.4 0.5 l 0.1 -0.5 a 0.5 0.5 0 1 1 0 1 z"/><path d="M 0 0 m 0.6 0.5 l -0.1 -0.5 a 0.5 0.5 0 1 0 0 1 z M 0 1 m 0.6 0.5 l -0.1 -0.5 a 0.5 0.5 0 1 0 0 1 z M 0 2 m 0.6 0.5 l -0.1 -0.5 a 0.5 0.5 0 1 0 0 1 z M 0 3 m 0.6 0.5 l -0.1 -0.5 a 0.5 0.5 0 1 0 0 1 z M 0 4 m 0.6 0.5 l -0.1 -0.5 a 0.5 0.5 0 1 0 0 1 z M 0 5 m 0.6 0.5 l -0.1 -0.5 a 0.5 0.5 0 1 0 0 1 z M 0 6 m 0.6 0.5 l -0.1 -0.5 a 0.5 0.5 0 1 0 0 1 z M 0 10 m 0.6 0.5 l -0.1 -0.5 a 0.5 0.5 0 1 0 0 1 z M 0 12 m 0.6 0.5 l -0.1 -0.5 a 0.5 0.5 0 1 0 0 1 z M 0 15 m 0.6 0.5 l -0.1 -0.5 a 0.5 0.5 0 1 0 0 1 z M 0 17 m 0.6 0.5 l -0.1 -0.5 a 0.5 0.5 0 1 0 0 1 z M 0 19 m 0.6 0.5 l -0.1 -0.5 a 0.5 0.5 0 1 0 0 1 z M 0 22 m 0.6 0.5 l -0.1 -0.5 a 0.5 0.5 0 1 0 0 1 z M 0 23 m 0.6 0.5 l -0.1 -0.5 a 0.5 0.5 0 1 0 0 1 z M 0 24 m 0.6 0.5 l -0.1 -0.5 a 0.5 0.5 0 1 0 0 1 z M 0 25 m 0.6 0.5 l -0.1 -0.5 a 0.5 0.5 0 1 0 0 1 z M 0 26 m 0.6 0.5 l -0.1 -0.5 a 0.5 0.5 0 1 0 0 1 z M 0 27 m 0.6 0.5 l -0.1 -0.5 a 0.5 0.5 0 1 0 0 1 z M 0 28 m 0.6 0.5 l -0.1 -0.5 a 0.5 0.5 0 1 0 0 1 z M 1 0 m 0.6 0.5 l -0.1 -0.5 a 0.5 0.5 0 1 0 0 1 z M 1 6 m 0.6 0.5 l -0.1 -0.5 a 0.5 0.5 0 1 0 0 1 z M 1 13 m 0.6 0.5 l -0.1 -0.5 a 0.5 0.5 0 1 0 0 1 z M 1 15 m 0.6 0.5 l -0.1 -0.5 a 0.5 0.5 0 1 0 0 1 z M 1 16 m 0.6 0.5 l -0.1 -0.5 a 0.5 0.5 0 1 0 0 1 z M 1 20 m 0.6 0.5 l -0.1 -0.5 a 0.5 0.5 0 1 0 0 1 z M 1 22 m 0.6 0.5 l -0.1 -0.5 a 0.5 0.5 0 1 0 0 1 z M 1 28 m 0.6 0.5 l -0.1 -0.5 a 0.5 0.5 0 1 0 0 1 z M 2 0 m 0.6 0.5 l -0.1 -0.5 a 0.5 0.5 0 1 0 0 1 z M 2 2 m 0.6 0.5 l -0.1 -0.5 a 0.5 0.5 0 1 0 0 1 z M 2 3 m 0.6 0.5 l -0.1 -0.5 a 0.5 0.5 0 1 0 0 1 z M 2 4 m 0.6 0.5 l -0.1 -0.5 a 0.5 0.5 0 1 0 0 1 z M 2 6 m 0.6 0.5 l -0.1 -0.5 a 0.5 0.5 0 1 0 0 1 z M 2 9 m 0.6 0.5 l -0.1 -0.5 a 0.5 0.5 0 1 0 0 1 z M 2 12 m 0.6 0.5 l -0.1 -0.5 a 0.5 0.5 0 1 0 0 1 z M 2 14 m 0.6 0.5 l -0.1 -0.5 a 0.5 0.5 0 1 0 0 1 z M 2 15 m 0.6 0.5 l -0.1 -0.5 a 0.5 0.5 0 1 0 0 1 z M 2 16 m 0.6 0.5 l -0.1 -0.5 a 0.5 0.5 0 1 0 0 1 z M 2 17 m 0.6 0.5 l -0.1 -0.5 a 0.5 0.5 0 1 0 0 1 z M 2 18 m 0.6 0.5 l -0.1 -0.5 a 0.5 0.5 0 1 0 0 1 z M 2 22 m 0.6 0.5 l -0.1 -0.5 a 0.5 0.5 0 1 0 0 1 z M 2 24 m 0.6 0.5 l -0.1 -0.5 a 0.5 0.5 0 1 0 0 1 z M 2 25 m 0.6 0.5 l -0.1 -0.5 a 0.5 0.5 0 1 0 0 1 z M 2 26 m 0.6 0.5 l -0.1 -0.5 a 0.5 0.5 0 1 0 0 1 z M 2 28 m 0.6 0.5 l -0.1 -0.5 a 0.5 0.5 0 1 0 0 1 z M 3 0 m 0.6 0.5 l -0.1 -0.5 a 0.5 0.5 0 1 0 0 1 z M 3 2 m 0.6 0.5 l -0.1 -0.5 a 0.5 0.5 0 1 0 0 1 z M 3 3 m 0.6 0.5 l -0.1 -0.5 a 0.5 0.5 0 1 0 0 1 z M 3 4 m 0.6 0.5 l -0.1 -0.5 a 0.5 0.5 0 1 0 0 1 z M 3 6 m 0.6 0.5 l -0.1 -0.5 a 0.5 0.5 0 1 0 0 1 z M 3 10 m 0.6 0.5 l -0.1 -0.5 a 0.5 0.5 0 1 0 0 1 z M 3 13 m 0.6 0.5 l -0.1 -0.5 a 0.5 0.5 0 1 0 0 1 z M 3 18 m 0.6 0.5 l -0.1 -0.5 a 0.5 0.5 0 1 0 0 1 z M 3 19 m 0.6 0.5 l -0.1 -0.5 a 0.5 0.5 0 1 0 0 1 z M 3 22 m 0.6 0.5 l -0.1 -0.5 a 0.5 0.5 0 1 0 0 1 z M 3 24 m 0.6 0.5 l -0.1 -0.5 a 0.5 0.5 0 1 0 0 1 z M 3 25 m 0.6 0.5 l -0.1 -0.5 a 0.5 0.5 0 1 0 0 1 z M 3 26 m 0.6 0.5 l -0.1 -0.5 a 0.5 0.5 0 1 0 0 1 z M 3 28 m 0.6 0.5 l -0.1 -0.5 a 0.5 0.5 0 1 0 0 1 z M 4 0 m 0.6 0.5 l -0.1 -0.5 a 0.5 0.5 0 1 0 0 1 z M 4 2 m 0.6 0.5 l -0.1 -0.5 a 0.5 0.5 0 1 0 0 1 z M 4 3 m 0.6 0.5 l -0.1 -0.5 a 0.5 0.5 0 1 0 0 1 z M 4 4 m 0.6 0.5 l -0.1 -0.5 a 0.5 0.5 0 1 0 0 1 z M 4 6 m 0.6 0.5 l -0.1 -0.5 a 0.5 0.5 0 1 0 0 1 z M 4 10 m 0.6 0.5 l -0.1 -0.5 a 0.5 0.5 0 1 0 0 1 z M 4 11 m 0.6 0.5 l -0.1 -0.5 a 0.5 0.5 0 1 0 0 1 z M 4 12 m 0.6 0.5 l -0.1 -0.5 a 0.5 0.5 0 1 0 0 1 z M 4 14 m 0.6 0.5 l -0.1 -0.5 a 0.5 0.5 0 1 0 0 1 z M 4 15 m 0.6 0.5 l -0.1 -0.5 a 0.5 0.5 0 1 0 0 1 z M 4 16 m 0.6 0.5 l -0.1 -0.5 a 0.5 0.5 0 1 0 0 1 z M 4 17 m 0.6 0.5 l -0.1 -0.5 a 0.5 0.5 0 1 0 0 1 z M 4 18 m 0.6 0.5 l -0.1 -0.5 a 0.5 0.5 0 1 0 0 1 z M 4 22 m 0.6 0.5 l -0.1 -0.5 a 0.5 0.5 0 1 0 0 1 z M 4 24 m 0.6 0.5 l -0.1 -0.5 a 0.5 0.5 0 1 0 0 1 z M 4 25 m 0.6 0.5 l -0.1 -0.5 a 0.5 0.5 0 1 0 0 1 z M 4 26 m 0.6 0.5 l -0.1 -0.5 a 0.5 0.5 0 1 0 0 1 z M 4 28 m 0.6 0.5 l -0.1 -0.5 a 0.5 0.5 0 1 0 0 1 z M 5 0 m 0.6 0.5 l -0.1 -0.5 a 0.5 0.5 0 1 0 0 1 z M 5 6 m 0.6 0.5 l -0.1 -0.5 a 0.5 0.5 0 1 0 0 1 z M 5 8 m 0.6 0.5 l -0.1 -0.5 a 0.5 0.5 0 1 0 0 1 z M 5 10 m 0.6 0.5 l -0.1 -0.5 a 0.5 0.5 0 1 0 0 1 z M 5 11 m 0.6 0.5 l -0.1 -0.5 a 0.5 0.5 0 1 0 0 1 z M 5 15 m 0.6 0.5 l -0.1 -0.5 a 0.5 0.5 0 1 0 0 1 z M 5 17 m 0.6 0.5 l -0.1 -0.5 a 0.5 0.5 0 1 0 0 1 z M 5 19 m 0.6 0.5 l -0.1 -0.5 a 0.5 0.5 0 1 0 0 1 z M 5 20 m 0.6 0.5 l -0.1 -0.5 a 0.5 0.5 0 1 0 0 1 z M 5 22 m 0.6 0.5 l -0.1 -0.5 a 0.5 0.5 0 1 0 0 1 z M 5 28 m 0.6 0.5 l -0.1 -0.5 a 0.5 0.5 0 1 0 0 1 z M 6 0 m 0.6 0.5 l -0.1 -0.5 a 0.5 0.5 0 1 0 0 1 z M 6 1 m 0.6 0.5 l -0.1 -0.5 a 0.5 0.5 0 1 0 0 1 z M 6 2 m 0.6 0.5 l -0.1 -0.5 a 0.5 0.5 0 1 0 0 1 z M 6 3 m 0.6 0.5 l -0.1 -0.5 a 0.5 0.5 0 1 0 0 1 z M 6 4 m 0.6 0.5 l -0.1 -0.5 a 0.5 0.5 0 1 0 0 1 z M 6 5 m 0.6 0.5 l -0.1 -0.5 a 0.5 0.5 0 1 0 0 1 z M 6 6 m 0.6 0.5 l -0.1 -0.5 a 0.5 0.5 0 1 0 0 1 z M 6 8 m 0.6 0.5 l -0.1 -0.5 a 0.5 0.5 0 1 0 0 1 z M 6 10 m 0.6 0.5 l -0.1 -0.5 a 0.5 0.5 0 1 0 0 1 z M 6 12 m 0.6 0.5 l -0.1 -0.5 a 0.5 0.5 0 1 0 0 1 z M 6 14 m 0.6 0.5 l -0.1 -0.5 a 0.5 0.5 0 1 0 0 1 z M 6 16 m 0.6 0.5 l -0.1 -0.5 a 0.5 0.5 0 1 0 0 1 z M 6 18 m 0.6 0.5 l -0.1 -0.5 a 0.5 0.5 0 1 0 0 1 z M 6 20 m 0.6 0.5 l -0.1 -0.5 a 0.5 0.5 0 1 0 0 1 z M 6 22 m 0.6 0.5 l -0.1 -0.5 a 0.5 0.5 0 1 0 0 1 z M 6 23 m 0.6 0.5 l -0.1 -0.5 a 0.5 0.5 0 1 0 0 1 z M 6 24 m 0.6 0.5 l -0.1 -0.5 a 0.5 0.5 0 1 0 0 1 z M 6 25 m 0.6 0.5 l -0.1 -0.5 a 0.5 0.5 0 1 0 0 1 z M 6 26 m 0.6 0.5 l -0.1 -0.5 a 0.5 0.5 0 1 0 0 1 z M 6 27 m 0.6 0.5 l -0.1 -0.5 a 0.5 0.5 0 1 0 0 1 z M 6 28 m 0.6 0.5 l -0.1 -0.5 a 0.5 0.5 0 1 0 0 1 z M 7 11 m 0.6 0.5 l -0.1 -0.5 a 0.5 0.5 0 1 0 0 1 z M 7 12 m 0.6 0.5 l -0.1 -0.5 a 0.5 0.5 0 1 0 0 1 z M 7 13 m 0.6 0.5 l -0.1 -0.5 a 0.5 0.5 0 1 0 0 1 z M 7 17 m 0.6 0.5 l -0.1 -0.5 a 0.5 0.5 0 1 0 0 1 z M 7 18 m 0.6 0.5 l -0.1 -0.5 a 0.5 0.5 0 1 0 0 1 z M 7 19 m 0.6 0.5 l -0.1 -0.5 a 0.5 0.5 0 1 0 0 1 z M 8 0 m 0.6 0.5 l -0.1 -0.5 a 0.5 0.5 0 1 0 0 1 z M 8 3 m 0.6 0.5 l -0.1 -0.5 a 0.5 0.5 0 1 0 0 1 z M 8 5 m 0.6 0.5 l -0.1 -0.5 a 0.5 0.5 0 1 0 0 1 z M 8 6 m 0.6 0.5 l -0.1 -0.5 a 0.5 0.5 0 1 0 0 1 z M 8 8 m 0.6 0.5 l -0.1 -0.5 a 0.5 0.5 0 1 0 0 1 z M 8 10 m 0.6 0.5 l -0.1 -0.5 a 0.5 0.5 0 1 0 0 1 z M 8 11 m 0.6 0.5 l -0.1 -0.5 a 0.5 0.5 0 1 0 0 1 z M 8 14 m 0.6 0.5 l -0.1 -0.5 a 0.5 0.5 0 1 0 0 1 z M 8 15 m 0.6 0.5 l -0.1 -0.5 a 0.5 0.5 0 1 0 0 1 z M 8 16 m 0.6 0.5 l -0.1 -0.5 a 0.5 0.5 0 1 0 0 1 z M 8 19 m 0.6 0.5 l -0.1 -0.5 a 0.5 0.5 0 1 0 0 1 z M 8 20 m 0.6 0.5 l -0.1 -0.5 a 0.5 0.5 0 1 0 0 1 z M 8 21 m 0.6 0.5 l -0.1 -0.5 a 0.5 0.5 0 1 0 0 1 z M 8 23 m 0.6 0.5 l -0.1 -0.5 a 0.5 0.5 0 1 0 0 1 z M 9 2 m 0.6 0.5 l -0.1 -0.5 a 0.5 0.5 0 1 0 0 1 z M 9 4 m 0.6 0.5 l -0.1 -0.5 a 0.5 0.5 0 1 0 0 1 z M 9 7 m 0.6 0.5 l -0.1 -0.5 a 0.5 0.5 0 1 0 0 1 z M 9 8 m 0.6 0.5 l -0.1 -0.5 a 0.5 0.5 0 1 0 0 1 z M 9 9 m 0.6 0.5 l -0.1 -0.5 a 0.5 0.5 0 1 0 0 1 z M 9 10 m 0.6 0.5 l -0.1 -0.5 a 0.5 0.5 0 1 0 0 1 z M 9 12 m 0.6 0.5 l -0.1 -0.5 a 0.5 0.5 0 1 0 0 1 z M 9 13 m 0.6 0.5 l -0.1 -0.5 a 0.5 0.5 0 1 0 0 1 z M 9 17 m 0.6 0.5 l -0.1 -0.5 a 0.5 0.5 0 1 0 0 1 z M 9 20 m 0.6 0.5 l -0.1 -0.5 a 0.5 0.5 0 1 0 0 1 z M 9 22 m 0.6 0.5 l -0.1 -0.5 a 0.5 0.5 0 1 0 0 1 z M 9 25 m 0.6 0.5 l -0.1 -0.5 a 0.5 0.5 0 1 0 0 1 z M 9 28 m 0.6 0.5 l -0.1 -0.5 a 0.5 0.5 0 1 0 0 1 z M 10 2 m 0.6 0.5 l -0.1 -0.5 a 0.5 0.5 0 1 0 0 1 z M 10 4 m 0.6 0.5 l -0.1 -0.5 a 0.5 0.5 0 1 0 0 1 z M 10 6 m 0.6 0.5 l -0.1 -0.5 a 0.5 0.5 0 1 0 0 1 z M 10 8 m 0.6 0.5 l -0.1 -0.5 a 0.5 0.5 0 1 0 0 1 z M 10 9 m 0.6 0.5 l -0.1 -0.5 a 0.5 0.5 0 1 0 0 1 z M 10 11 m 0.6 0.5 l -0.1 -0.5 a 0.5 0.5 0 1 0 0 1 z M 10 13 m 0.6 0.5 l -0.1 -0.5 a 0.5 0.5 0 1 0 0 1 z M 10 14 m 0.6 0.5 l -0.1 -0.5 a 0.5 0.5 0 1 0 0 1 z M 10 18 m 0.6 0.5 l -0.1 -0.5 a 0.5 0.5 0 1 0 0 1 z M 10 19 m 0.6 0.5 l -0.1 -0.5 a 0.5 0.5 0 1 0 0 1 z M 10 21 m 0.6 0.5 l -0.1 -0.5 a 0.5 0.5 0 1 0 0 1 z M 10 24 m 0.6 0.5 l -0.1 -0.5 a 0.5 0.5 0 1 0 0 1 z M 10 25 m 0.6 0.5 l -0.1 -0.5 a 0.5 0.5 0 1 0 0 1 z M 10 26 m 0.6 0.5 l -0.1 -0.5 a 0.5 0.5 0 1 0 0 1 z M 10 27 m 0.6 0.5 l -0.1 -0.5 a 0.5 0.5 0 1 0 0 1 z M 11 1 m 0.6 0.5 l -0.1 -0.5 a 0.5 0.5 0 1 0 0 1 z M 11 3 m 0.6 0.5 l -0.1 -0.5 a 0.5 0.5 0 1 0 0 1 z M 11 5 m 0.6 0.5 l -0.1 -0.5 a 0.5 0.5 0 1 0 0 1 z M 11 7 m 0.6 0.5 l -0.1 -0.5 a 0.5 0.5 0 1 0 0 1 z M 11 8 m 0.6 0.5 l -0.1 -0.5 a 0.5 0.5 0 1 0 0 1 z M 11 13 m 0.6 0.5 l -0.1 -0.5 a 0.5 0.5 0 1 0 0 1 z M 11 18 m 0.6 0.5 l -0.1 -0.5 a 0.5 0.5 0 1 0 0 1 z M 11 19 m 0.6 0.5 l -0.1 -0.5 a 0.5 0.5 0 1 0 0 1 z M 11 20 m 0.6 0.5 l -0.1 -0.5 a 0.5 0.5 0 1 0 0 1 z M 11 24 m 0.6 0.5 l -0.1 -0.5 a 0.5 0.5 0 1 0 0 1 z M 11 26 m 0.6 0.5 l -0.1 -0.5 a 0.5 0.5 0 1 0 0 1 z M 11 27 m 0.6 0.5 l -0.1 -0.5 a 0.5 0.5 0 1 0 0 1 z M 12 0 m 0.6 0.5 l -0.1 -0.5 a 0.5 0.5 0 1 0 0 1 z M 12 1 m 0.6 0.5 l -0.1 -0.5 a 0.5 0.5 0 1 0 0 1 z M 12 2 m 0.6 0.5 l -0.1 -0.5 a 0.5 0.5 0 1 0 0 1 z M 12 6 m 0.6 0.5 l -0.1 -0.5 a 0.5 0.5 0 1 0 0 1 z M 12 7 m 0.6 0.5 l -0.1 -0.5 a 0.5 0.5 0 1 0 0 1 z M 12 11 m 0.6 0.5 l -0.1 -0.5 a 0.5 0.5 0 1 0 0 1 z M 12 12 m 0.6 0.5 l -0.1 -0.5 a 0.5 0.5 0 1 0 0 1 z M 12 14 m 0.6 0.5 l -0.1 -0.5 a 0.5 0.5 0 1 0 0 1 z M 12 17 m 0.6 0.5 l -0.1 -0.5 a 0.5 0.5 0 1 0 0 1 z M 12 20 m 0.6 0.5 l -0.1 -0.5 a 0.5 0.5 0 1 0 0 1 z M 12 21 m 0.6 0.5 l -0.1 -0.5 a 0.5 0.5 0 1 0 0 1 z M 12 22 m 0.6 0.5 l -0.1 -0.5 a 0.5 0.5 0 1 0 0 1 z M 12 25 m 0.6 0.5 l -0.1 -0.5 a 0.5 0.5 0 1 0 0 1 z M 12 27 m 0.6 0.5 l -0.1 -0.5 a 0.5 0.5 0 1 0 0 1 z M 12 28 m 0.6 0.5 l -0.1 -0.5 a 0.5 0.5 0 1 0 0 1 z M 13 0 m 0.6 0.5 l -0.1 -0.5 a 0.5 0.5 0 1 0 0 1 z M 13 2 m 0.6 0.5 l -0.1 -0.5 a 0.5 0.5 0 1 0 0 1 z M 13 7 m 0.6 0.5 l -0.1 -0.5 a 0.5 0.5 0 1 0 0 1 z M 13 8 m 0.6 0.5 l -0.1 -0.5 a 0.5 0.5 0 1 0 0 1 z M 13 10 m 0.6 0.5 l -0.1 -0.5 a 0.5 0.5 0 1 0 0 1 z M 13 11 m 0.6 0.5 l -0.1 -0.5 a 0.5 0.5 0 1 0 0 1 z M 13 13 m 0.6 0.5 l -0.1 -0.5 a 0.5 0.5 0 1 0 0 1 z M 13 14 m 0.6 0.5 l -0.1 -0.5 a 0.5 0.5 0 1 0 0 1 z M 13 19 m 0.6 0.5 l -0.1 -0.5 a 0.5 0.5 0 1 0 0 1 z M 13 20 m 0.6 0.5 l -0.1 -0.5 a 0.5 0.5 0 1 0 0 1 z M 13 21 m 0.6 0.5 l -0.1 -0.5 a 0.5 0.5 0 1 0 0 1 z M 14 0 m 0.6 0.5 l -0.1 -0.5 a 0.5 0.5 0 1 0 0 1 z M 14 1 m 0.6 0.5 l -0.1 -0.5 a 0.5 0.5 0 1 0 0 1 z M 14 3 m 0.6 0.5 l -0.1 -0.5 a 0.5 0.5 0 1 0 0 1 z M 14 4 m 0.6 0.5 l -0.1 -0.5 a 0.5 0.5 0 1 0 0 1 z M 14 6 m 0.6 0.5 l -0.1 -0.5 a 0.5 0.5 0 1 0 0 1 z M 14 7 m 0.6 0.5 l -0.1 -0.5 a 0.5 0.5 0 1 0 0 1 z M 14 9 m 0.6 0.5 l -0.1 -0.5 a 0.5 0.5 0 1 0 0 1 z M 14 10 m 0.6 0.5 l -0.1 -0.5 a 0.5 0.5 0 1 0 0 1 z M 14 13 m 0.6 0.5 l -0.1 -0.5 a 0.5 0.5 0 1 0 0 1 z M 14 14 m 0.6 0.5 l -0.1 -0.5 a 0.5 0.5 0 1 0 0 1 z M 14 17 m 0.6 0.5 l -0.1 -0.5 a 0.5 0.5 0 1 0 0 1 z M 14 20 m 0.6 0.5 l -0.1 -0.5 a 0.5 0.5 0 1 0 0 1 z M 14 22 m 0.6 0.5 l -0.1 -0.5 a 0.5 0.5 0 1 0 0 1 z M 14 23 m 0.6 0.5 l -0.1 -0.5 a 0.5 0.5 0 1 0 0 1 z M 14 24 m 0.6 0.5 l -0.1 -0.5 a 0.5 0.5 0 1 0 0 1 z M 14 25 m 0.6 0.5 l -0.1 -0.5 a 0.5 0.5 0 1 0 0 1 z M 14 26 m 0.6 0.5 l -0.1 -0.5 a 0.5 0.5 0 1 0 0 1 z M 14 27 m 0.6 0.5 l -0.1 -0.5 a 0.5 0.5 0 1 0 0 1 z M 14 28 m 0.6 0.5 l -0.1 -0.5 a 0.5 0.5 0 1 0 0 1 z M 15 2 m 0.6 0.5 l -0.1 -0.5 a 0.5 0.5 0 1 0 0 1 z M 15 7 m 0.6 0.5 l -0.1 -0.5 a 0.5 0.5 0 1 0 0 1 z M 15 8 m 0.6 0.5 l -0.1 -0.5 a 0.5 0.5 0 1 0 0 1 z M 15 9 m 0.6 0.5 l -0.1 -0.5 a 0.5 0.5 0 1 0 0 1 z M 15 10 m 0.6 0.5 l -0.1 -0.5 a 0.5 0.5 0 1 0 0 1 z M 15 12 m 0.6 0.5 l -0.1 -0.5 a 0.5 0.5 0 1 0 0 1 z M 15 15 m 0.6 0.5 l -0.1 -0.5 a 0.5 0.5 0 1 0 0 1 z M 15 17 m 0.6 0.5 l -0.1 -0.5 a 0.5 0.5 0 1 0 0 1 z M 15 18 m 0.6 0.5 l -0.1 -0.5 a 0.5 0.5 0 1 0 0 1 z M 15 20 m 0.6 0.5 l -0.1 -0.5 a 0.5 0.5 0 1 0 0 1 z M 15 21 m 0.6 0.5 l -0.1 -0.5 a 0.5 0.5 0 1 0 0 1 z M 15 22 m 0.6 0.5 l -0.1 -0.5 a 0.5 0.5 0 1 0 0 1 z M 15 25 m 0.6 0.5 l -0.1 -0.5 a 0.5 0.5 0 1 0 0 1 z M 15 27 m 0.6 0.5 l -0.1 -0.5 a 0.5 0.5 0 1 0 0 1 z M 16 5 m 0.6 0.5 l -0.1 -0.5 a 0.5 0.5 0 1 0 0 1 z M 16 6 m 0.6 0.5 l -0.1 -0.5 a 0.5 0.5 0 1 0 0 1 z M 16 8 m 0.6 0.5 l -0.1 -0.5 a 0.5 0.5 0 1 0 0 1 z M 16 12 m 0.6 0.5 l -0.1 -0.5 a 0.5 0.5 0 1 0 0 1 z M 16 13 m 0.6 0.5 l -0.1 -0.5 a 0.5 0.5 0 1 0 0 1 z M 16 16 m 0.6 0.5 l -0.1 -0.5 a 0.5 0.5 0 1 0 0 1 z M 16 17 m 0.6 0.5 l -0.1 -0.5 a 0.5 0.5 0 1 0 0 1 z M 16 20 m 0.6 0.5 l -0.1 -0.5 a 0.5 0.5 0 1 0 0 1 z M 16 23 m 0.6 0.5 l -0.1 -0.5 a 0.5 0.5 0 1 0 0 1 z M 16 27 m 0.6 0.5 l -0.1 -0.5 a 0.5 0.5 0 1 0 0 1 z M 17 2 m 0.6 0.5 l -0.1 -0.5 a 0.5 0.5 0 1 0 0 1 z M 17 3 m 0.6 0.5 l -0.1 -0.5 a 0.5 0.5 0 1 0 0 1 z M 17 5 m 0.6 0.5 l -0.1 -0.5 a 0.5 0.5 0 1 0 0 1 z M 17 9 m 0.6 0.5 l -0.1 -0.5 a 0.5 0.5 0 1 0 0 1 z M 17 10 m 0.6 0.5 l -0.1 -0.5 a 0.5 0.5 0 1 0 0 1 z M 17 13 m 0.6 0.5 l -0.1 -0.5 a 0.5 0.5 0 1 0 0 1 z M 17 14 m 0.6 0.5 l -0.1 -0.5 a 0.5 0.5 0 1 0 0 1 z M 17 16 m 0.6 0.5 l -0.1 -0.5 a 0.5 0.5 0 1 0 0 1 z M 17 20 m 0.6 0.5 l -0.1 -0.5 a 0.5 0.5 0 1 0 0 1 z M 17 21 m 0.6 0.5 l -0.1 -0.5 a 0.5 0.5 0 1 0 0 1 z M 17 22 m 0.6 0.5 l -0.1 -0.5 a 0.5 0.5 0 1 0 0 1 z M 17 23 m 0.6 0.5 l -0.1 -0.5 a 0.5 0.5 0 1 0 0 1 z M 17 25 m 0.6 0.5 l -0.1 -0.5 a 0.5 0.5 0 1 0 0 1 z M 17 28 m 0.6 0.5 l -0.1 -0.5 a 0.5 0.5 0 1 0 0 1 z M 18 0 m 0.6 0.5 l -0.1 -0.5 a 0.5 0.5 0 1 0 0 1 z M 18 2 m 0.6 0.5 l -0.1 -0.5 a 0.5 0.5 0 1 0 0 1 z M 18 3 m 0.6 0.5 l -0.1 -0.5 a 0.5 0.5 0 1 0 0 1 z M 18 6 m 0.6 0.5 l -0.1 -0.5 a 0.5 0.5 0 1 0 0 1 z M 18 9 m 0.6 0.5 l -0.1 -0.5 a 0.5 0.5 0 1 0 0 1 z M 18 11 m 0.6 0.5 l -0.1 -0.5 a 0.5 0.5 0 1 0 0 1 z M 18 14 m 0.6 0.5 l -0.1 -0.5 a 0.5 0.5 0 1 0 0 1 z M 18 18 m 0.6 0.5 l -0.1 -0.5 a 0.5 0.5 0 1 0 0 1 z M 18 21 m 0.6 0.5 l -0.1 -0.5 a 0.5 0.5 0 1 0 0 1 z M 18 23 m 0.6 0.5 l -0.1 -0.5 a 0.5 0.5 0 1 0 0 1 z M 18 24 m 0.6 0.5 l -0.1 -0.5 a 0.5 0.5 0 1 0 0 1 z M 18 27 m 0.6 0.5 l -0.1 -0.5 a 0.5 0.5 0 1 0 0 1 z M 18 28 m 0.6 0.5 l -0.1 -0.5 a 0.5 0.5 0 1 0 0 1 z M 19 2 m 0.6 0.5 l -0.1 -0.5 a 0.5 0.5 0 1 0 0 1 z M 19 3 m 0.6 0.5 l -0.1 -0.5 a 0.5 0.5 0 1 0 0 1 z M 19 4 m 0.6 0.5 l -0.1 -0.5 a 0.5 0.5 0 1 0 0 1 z M 19 8 m 0.6 0.5 l -0.1 -0.5 a 0.5 0.5 0 1 0 0 1 z M 19 9 m 0.6 0.5 l -0.1 -0.5 a 0.5 0.5 0 1 0 0 1 z M 19 10 m 0.6 0.5 l -0.1 -0.5 a 0.5 0.5 0 1 0 0 1 z M 19 12 m 0.6 0.5 l -0.1 -0.5 a 0.5 0.5 0 1 0 0 1 z M 19 14 m 0.6 0.5 l -0.1 -0.5 a 0.5 0.5 0 1 0 0 1 z M 19 17 m 0.6 0.5 l -0.1 -0.5 a 0.5 0.5 0 1 0 0 1 z M 19 18 m 0.6 0.5 l -0.1 -0.5 a 0.5 0.5 0 1 0 0 1 z M 19 20 m 0.6 0.5 l -0.1 -0.5 a 0.5 0.5 0 1 0 0 1 z M 19 21 m 0.6 0.5 l -0.1 -0.5 a 0.5 0.5 0 1 0 0 1 z M 19 23 m 0.6 0.5 l -0.1 -0.5 a 0.5 0.5 0 1 0 0 1 z M 19 24 m 0.6 0.5 l -0.1 -0.5 a 0.5 0.5 0 1 0 0 1 z M 19 27 m 0.6 0.5 l -0.1 -0.5 a 0.5 0.5 0 1 0 0 1 z M 19 28 m 0.6 0.5 l -0.1 -0.5 a 0.5 0.5 0 1 0 0 1 z M 20 0 m 0.6 0.5 l -0.1 -0.5 a 0.5 0.5 0 1 0 0 1 z M 20 2 m 0.6 0.5 l -0.1 -0.5 a 0.5 0.5 0 1 0 0 1 z M 20 5 m 0.6 0.5 l -0.1 -0.5 a 0.5 0.5 0 1 0 0 1 z M 20 6 m 0.6 0.5 l -0.1 -0.5 a 0.5 0.5 0 1 0 0 1 z M 20 10 m 0.6 0.5 l -0.1 -0.5 a 0.5 0.5 0 1 0 0 1 z M 20 11 m 0.6 0.5 l -0.1 -0.5 a 0.5 0.5 0 1 0 0 1 z M 20 16 m 0.6 0.5 l -0.1 -0.5 a 0.5 0.5 0 1 0 0 1 z M 20 19 m 0.6 0.5 l -0.1 -0.5 a 0.5 0.5 0 1 0 0 1 z M 20 20 m 0.6 0.5 l -0.1 -0.5 a 0.5 0.5 0 1 0 0 1 z M 20 21 m 0.6 0.5 l -0.1 -0.5 a 0.5 0.5 0 1 0 0 1 z M 20 22 m 0.6 0.5 l -0.1 -0.5 a 0.5 0.5 0 1 0 0 1 z M 20 23 m 0.6 0.5 l -0.1 -0.5 a 0.5 0.5 0 1 0 0 1 z M 20 24 m 0.6 0.5 l -0.1 -0.5 a 0.5 0.5 0 1 0 0 1 z M 20 26 m 0.6 0.5 l -0.1 -0.5 a 0.5 0.5 0 1 0 0 1 z M 21 8 m 0.6 0.5 l -0.1 -0.5 a 0.5 0.5 0 1 0 0 1 z M 21 9 m 0.6 0.5 l -0.1 -0.5 a 0.5 0.5 0 1 0 0 1 z M 21 14 m 0.6 0.5 l -0.1 -0.5 a 0.5 0.5 0 1 0 0 1 z M 21 16 m 0.6 0.5 l -0.1 -0.5 a 0.5 0.5 0 1 0 0 1 z M 21 18 m 0.6 0.5 l -0.1 -0.5 a 0.5 0.5 0 1 0 0 1 z M 21 19 m 0.6 0.5 l -0.1 -0.5 a 0.5 0.5 0 1 0 0 1 z M 21 20 m 0.6 0.5 l -0.1 -0.5 a 0.5 0.5 0 1 0 0 1 z M 21 24 m 0.6 0.5 l -0.1 -0.5 a 0.5 0.5 0 1 0 0 1 z M 21 26 m 0.6 0.5 l -0.1 -0.5 a 0.5 0.5 0 1 0 0 1 z M 21 27 m 0.6 0.5 l -0.1 -0.5 a 0.5 0.5 0 1 0 0 1 z M 21 28 m 0.6 0.5 l -0.1 -0.5 a 0.5 0.5 0 1 0 0 1 z M 22 0 m 0.6 0.5 l -0.1 -0.5 a 0.5 0.5 0 1 0 0 1 z M 22 1 m 0.6 0.5 l -0.1 -0.5 a 0.5 0.5 0 1 0 0 1 z M 22 2 m 0.6 0.5 l -0.1 -0.5 a 0.5 0.5 0 1 0 0 1 z M 22 3 m 0.6 0.5 l -0.1 -0.5 a 0.5 0.5 0 1 0 0 1 z M 22 4 m 0.6 0.5 l -0.1 -0.5 a 0.5 0.5 0 1 0 0 1 z M 22 5 m 0.6 0.5 l -0.1 -0.5 a 0.5 0.5 0 1 0 0 1 z M 22 6 m 0.6 0.5 l -0.1 -0.5 a 0.5 0.5 0 1 0 0 1 z M 22 9 m 0.6 0.5 l -0.1 -0.5 a 0.5 0.5 0 1 0 0 1 z M 22 11 m 0.6 0.5 l -0.1 -0.5 a 0.5 0.5 0 1 0 0 1 z M 22 12 m 0.6 0.5 l -0.1 -0.5 a 0.5 0.5 0 1 0 0 1 z M 22 17 m 0.6 0.5 l -0.1 -0.5 a 0.5 0.5 0 1 0 0 1 z M 22 18 m 0.6 0.5 l -0.1 -0.5 a 0.5 0.5 0 1 0 0 1 z M 22 20 m 0.6 0.5 l -0.1 -0.5 a 0.5 0.5 0 1 0 0 1 z M 22 22 m 0.6 0.5 l -0.1 -0.5 a 0.5 0.5 0 1 0 0 1 z M 22 24 m 0.6 0.5 l -0.1 -0.5 a 0.5 0.5 0 1 0 0 1 z M 22 27 m 0.6 0.5 l -0.1 -0.5 a 0.5 0.5 0 1 0 0 1 z M 23 0 m 0.6 0.5 l -0.1 -0.5 a 0.5 0.5 0 1 0 0 1 z M 23 6 m 0.6 0.5 l -0.1 -0.5 a 0.5 0.5 0 1 0 0 1 z M 23 8 m 0.6 0.5 l -0.1 -0.5 a 0.5 0.5 0 1 0 0 1 z M 23 9 m 0.6 0.5 l -0.1 -0.5 a 0.5 0.5 0 1 0 0 1 z M 23 11 m 0.6 0.5 l -0.1 -0.5 a 0.5 0.5 0 1 0 0 1 z M 23 12 m 0.6 0.5 l -0.1 -0.5 a 0.5 0.5 0 1 0 0 1 z M 23 14 m 0.6 0.5 l -0.1 -0.5 a 0.5 0.5 0 1 0 0 1 z M 23 16 m 0.6 0.5 l -0.1 -0.5 a 0.5 0.5 0 1 0 0 1 z M 23 20 m 0.6 0.5 l -0.1 -0.5 a 0.5 0.5 0 1 0 0 1 z M 23 24 m 0.6 0.5 l -0.1 -0.5 a 0.5 0.5 0 1 0 0 1 z M 23 25 m 0.6 0.5 l -0.1 -0.5 a 0.5 0.5 0 1 0 0 1 z M 23 26 m 0.6 0.5 l -0.1 -0.5 a 0.5 0.5 0 1 0 0 1 z M 24 0 m 0.6 0.5 l -0.1 -0.5 a 0.5 0.5 0 1 0 0 1 z M 24 2 m 0.6 0.5 l -0.1 -0.5 a 0.5 0.5 0 1 0 0 1 z M 24 3 m 0.6 0.5 l -0.1 -0.5 a 0.5 0.5 0 1 0 0 1 z M 24 4 m 0.6 0.5 l -0.1 -0.5 a 0.5 0.5 0 1 0 0 1 z M 24 6 m 0.6 0.5 l -0.1 -0.5 a 0.5 0.5 0 1 0 0 1 z M 24 11 m 0.6 0.5 l -0.1 -0.5 a 0.5 0.5 0 1 0 0 1 z M 24 17 m 0.6 0.5 l -0.1 -0.5 a 0.5 0.5 0 1 0 0 1 z M 24 18 m 0.6 0.5 l -0.1 -0.5 a 0.5 0.5 0 1 0 0 1 z M 24 20 m 0.6 0.5 l -0.1 -0.5 a 0.5 0.5 0 1 0 0 1 z M 24 21 m 0.6 0.5 l -0.1 -0.5 a 0.5 0.5 0 1 0 0 1 z M 24 22 m 0.6 0.5 l -0.1 -0.5 a 0.5 0.5 0 1 0 0 1 z M 24 23 m 0.6 0.5 l -0.1 -0.5 a 0.5 0.5 0 1 0 0 1 z M 24 24 m 0.6 0.5 l -0.1 -0.5 a 0.5 0.5 0 1 0 0 1 z M 24 27 m 0.6 0.5 l -0.1 -0.5 a 0.5 0.5 0 1 0 0 1 z M 24 28 m 0.6 0.5 l -0.1 -0.5 a 0.5 0.5 0 1 0 0 1 z M 25 0 m 0.6 0.5 l -0.1 -0.5 a 0.5 0.5 0 1 0 0 1 z M 25 2 m 0.6 0.5 l -0.1 -0.5 a 0.5 0.5 0 1 0 0 1 z M 25 3 m 0.6 0.5 l -0.1 -0.5 a 0.5 0.5 0 1 0 0 1 z M 25 4 m 0.6 0.5 l -0.1 -0.5 a 0.5 0.5 0 1 0 0 1 z M 25 6 m 0.6 0.5 l -0.1 -0.5 a 0.5 0.5 0 1 0 0 1 z M 25 8 m 0.6 0.5 l -0.1 -0.5 a 0.5 0.5 0 1 0 0 1 z M 25 10 m 0.6 0.5 l -0.1 -0.5 a 0.5 0.5 0 1 0 0 1 z M 25 11 m 0.6 0.5 l -0.1 -0.5 a 0.5 0.5 0 1 0 0 1 z M 25 13 m 0.6 0.5 l -0.1 -0.5 a 0.5 0.5 0 1 0 0 1 z M 25 19 m 0.6 0.5 l -0.1 -0.5 a 0.5 0.5 0 1 0 0 1 z M 25 20 m 0.6 0.5 l -0.1 -0.5 a 0.5 0.5 0 1 0 0 1 z M 25 22 m 0.6 0.5 l -0.1 -0.5 a 0.5 0.5 0 1 0 0 1 z M 25 23 m 0.6 0.5 l -0.1 -0.5 a 0.5 0.5 0 1 0 0 1 z M 25 24 m 0.6 0.5 l -0.1 -0.5 a 0.5 0.5 0 1 0 0 1 z M 25 25 m 0.6 0.5 l -0.1 -0.5 a 0.5 0.5 0 1 0 0 1 z M 25 26 m 0.6 0.5 l -0.1 -0.5 a 0.5 0.5 0 1 0 0 1 z M 25 27 m 0.6 0.5 l -0.1 -0.5 a 0.5 0.5 0 1 0 0 1 z M 26 0 m 0.6 0.5 l -0.1 -0.5 a 0.5 0.5 0 1 0 0 1 z M 26 2 m 0.6 0.5 l -0.1 -0.5 a 0.5 0.5 0 1 0 0 1 z M 26 3 m 0.6 0.5 l -0.1 -0.5 a 0.5 0.5 0 1 0 0 1 z M 26 4 m 0.6 0.5 l -0.1 -0.5 a 0.5 0.5 0 1 0 0 1 z M 26 6 m 0.6 0.5 l -0.1 -0.5 a 0.5 0.5 0 1 0 0 1 z M 26 9 m 0.6 0.5 l -0.1 -0.5 a 0.5 0.5 0 1 0 0 1 z M 26 10 m 0.6 0.5 l -0.1 -0.5 a 0.5 0.5 0 1 0 0 1 z M 26 11 m 0.6 0.5 l -0.1 -0.5 a 0.5 0.5 0 1 0 0 1 z M 26 13 m 0.6 0.5 l -0.1 -0.5 a 0.5 0.5 0 1 0 0 1 z M 26 19 m 0.6 0.5 l -0.1 -0.5 a 0.5 0.5 0 1 0 0 1 z M 26 20 m 0.6 0.5 l -0.1 -0.5 a 0.5 0.5 0 1 0 0 1 z M 26 24 m 0.6 0.5 l -0.1 -0.5 a 0.5 0.5 0 1 0 0 1 z M 26 25 m 0.6 0.5 l -0.1 -0.5 a 0.5 0.5 0 1 0 0 1 z M 26 26 m 0.6 0.5 l -0.1 -0.5 a 0.5 0.5 0 1 0 0 1 z M 26 28 m 0.6 0.5 l -0.1 -0.5 a 0.5 0.5 0 1 0 0 1 z M 27 0 m 0.6 0.5 l -0.1 -0.5 a 0.5 0.5 0 1 0 0 1 z M 27 6 m 0.6 0.5 l -0.1 -0.5 a 0.5 0.5 0 1 0 0 1 z M 27 9 m 0.6 0.5 l -0.1 -0.5 a 0.5 0.5 0 1 0 0 1 z M 27 10 m 0.6 0.5 l -0.1 -0.5 a 0.5 0.5 0 1 0 0 1 z M 27 13 m 0.6 0.5 l -0.1 -0.5 a 0.5 0.5 0 1 0 0 1 z M 27 14 m 0.6 0.5 l -0.1 -0.5 a 0.5 0.5 0 1 0 0 1 z M 27 17 m 0.6 0.5 l -0.1 -0.5 a 0.5 0.5 0 1 0 0 1 z M 27 18 m 0.6 0.5 l -0.1 -0.5 a 0.5 0.5 0 1 0 0 1 z M 27 19 m 0.6 0.5 l -0.1 -0.5 a 0.5 0.5 0 1 0 0 1 z M 27 20 m 0.6 0.5 l -0.1 -0.5 a 0.5 0.5 0 1 0 0 1 z M 27 21 m 0.6 0.5 l -0.1 -0.5 a 0.5 0.5 0 1 0 0 1 z M 27 24 m 0.6 0.5 l -0.1 -0.5 a 0.5 0.5 0 1 0 0 1 z M 27 27 m 0.6 0.5 l -0.1 -0.5 a 0.5 0.5 0 1 0 0 1 z M 28 0 m 0.6 0.5 l -0.1 -0.5 a 0.5 0.5 0 1 0 0 1 z M 28 1 m 0.6 0.5 l -0.1 -0.5 a 0.5 0.5 0 1 0 0 1 z M 28 2 m 0.6 0.5 l -0.1 -0.5 a 0.5 0.5 0 1 0 0 1 z M 28 3 m 0.6 0.5 l -0.1 -0.5 a 0.5 0.5 0 1 0 0 1 z M 28 4 m 0.6 0.5 l -0.1 -0.5 a 0.5 0.5 0 1 0 0 1 z M 28 5 m 0.6 0.5 l -0.1 -0.5 a 0.5 0.5 0 1 0 0 1 z M 28 6 m 0.6 0.5 l -0.1 -0.5 a 0.5 0.5 0 1 0 0 1 z M 28 8 m 0.6 0.5 l -0.1 -0.5 a 0.5 0.5 0 1 0 0 1 z M 28 9 m 0.6 0.5 l -0.1 -0.5 a 0.5 0.5 0 1 0 0 1 z M 28 10 m 0.6 0.5 l -0.1 -0.5 a 0.5 0.5 0 1 0 0 1 z M 28 13 m 0.6 0.5 l -0.1 -0.5 a 0.5 0.5 0 1 0 0 1 z M 28 14 m 0.6 0.5 l -0.1 -0.5 a 0.5 0.5 0 1 0 0 1 z M 28 16 m 0.6 0.5 l -0.1 -0.5 a 0.5 0.5 0 1 0 0 1 z M 28 17 m 0.6 0.5 l -0.1 -0.5 a 0.5 0.5 0 1 0 0 1 z M 28 20 m 0.6 0.5 l -0.1 -0.5 a 0.5 0.5 0 1 0 0 1 z M 28 21 m 0.6 0.5 l -0.1 -0.5 a 0.5 0.5 0 1 0 0 1 z M 28 22 m 0.6 0.5 l -0.1 -0.5 a 0.5 0.5 0 1 0 0 1 z M 28 23 m 0.6 0.5 l -0.1 -0.5 a 0.5 0.5 0 1 0 0 1 z M 28 24 m 0.6 0.5 l -0.1 -0.5 a 0.5 0.5 0 1 0 0 1 z M 28 25 m 0.6 0.5 l -0.1 -0.5 a 0.5 0.5 0 1 0 0 1 z M 28 27 m 0.6 0.5 l -0.1 -0.5 a 0.5 0.5 0 1 0 0 1 z"/><path d="M 0 0.5 m 0 0 h 1 v 1 h -1 z M 0 1.5 m 0 0 h 1 v 1 h -1 z M 0 2.5 m 0 0 h 1 v 1 h -1 z M 0 3.5 m 0 0 h 1 v 1 h -1 z M 0 4.5 m 0 0 h 1 v 1 h -1 z M 0 5.5 m 0 0 h 1 v 1 h -1 z M 0 22.5 m 0 0 h 1 v 1 h -1 z M 0 23.5 m 0 0 h 1 v 1 h -1 z M 0 24.5 m 0 0 h 1 v 1 h -1 z M 0 25.5 m 0 0 h 1 v 1 h -1 z M 0 26.5 m 0 0 h 1 v 1 h -1 z M 0 27.5 m 0 0 h 1 v 1 h -1 z M 1 15.5 m 0 0 h 1 v 1 h -1 z M 2 2.5 m 0 0 h 1 v 1 h -1 z M 2 3.5 m 0 0 h 1 v 1 h -1 z M 2 14.5 m 0 0 h 1 v 1 h -1 z M 2 15.5 m 0 0 h 1 v 1 h -1 z M 2 16.5 m 0 0 h 1 v 1 h -1 z M 2 17.5 m 0 0 h 1 v 1 h -1 z M 2 24.5 m 0 0 h 1 v 1 h -1 z M 2 25.5 m 0 0 h 1 v 1 h -1 z M 3 2.5 m 0 0 h 1 v 1 h -1 z M 3 3.5 m 0 0 h 1 v 1 h -1 z M 3 18.5 m 0 0 h 1 v 1 h -1 z M 3 24.5 m 0 0 h 1 v 1 h -1 z M 3 25.5 m 0 0 h 1 v 1 h -1 z M 4 2.5 m 0 0 h 1 v 1 h -1 z M 4 3.5 m 0 0 h 1 v 1 h -1 z M 4 10.5 m 0 0 h 1 v 1 h -1 z M 4 11.5 m 0 0 h 1 v 1 h -1 z M 4 14.5 m 0 0 h 1 v 1 h -1 z M 4 15.5 m 0 0 h 1 v 1 h -1 z M 4 16.5 m 0 0 h 1 v 1 h -1 z M 4 17.5 m 0 0 h 1 v 1 h -1 z M 4 24.5 m 0 0 h 1 v 1 h -1 z M 4 25.5 m 0 0 h 1 v 1 h -1 z M 5 10.5 m 0 0 h 1 v 1 h -1 z M 5 19.5 m 0 0 h 1 v 1 h -1 z M 6 0.5 m 0 0 h 1 v 1 h -1 z M 6 1.5 m 0 0 h 1 v 1 h -1 z M 6 2.5 m 0 0 h 1 v 1 h -1 z M 6 3.5 m 0 0 h 1 v 1 h -1 z M 6 4.5 m 0 0 h 1 v 1 h -1 z M 6 5.5 m 0 0 h 1 v 1 h -1 z M 6 22.5 m 0 0 h 1 v 1 h -1 z M 6 23.5 m 0 0 h 1 v 1 h -1 z M 6 24.5 m 0 0 h 1 v 1 h -1 z M 6 25.5 m 0 0 h 1 v 1 h -1 z M 6 26.5 m 0 0 h 1 v 1 h -1 z M 6 27.5 m 0 0 h 1 v 1 h -1 z M 7 11.5 m 0 0 h 1 v 1 h -1 z M 7 12.5 m 0 0 h 1 v 1 h -1 z M 7 17.5 m 0 0 h 1 v 1 h -1 z M 7 18.5 m 0 0 h 1 v 1 h -1 z M 8 5.5 m 0 0 h 1 v 1 h -1 z M 8 10.5 m 0 0 h 1 v 1 h -1 z M 8 14.5 m 0 0 h 1 v 1 h -1 z M 8 15.5 m 0 0 h 1 v 1 h -1 z M 8 19.5 m 0 0 h 1 v 1 h -1 z M 8 20.5 m 0 0 h 1 v 1 h -1 z M 9 7.5 m 0 0 h 1 v 1 h -1 z M 9 8.5 m 0 0 h 1 v 1 h -1 z M 9 9.5 m 0 0 h 1 v 1 h -1 z M 9 12.5 m 0 0 h 1 v 1 h -1 z M 10 8.5 m 0 0 h 1 v 1 h -1 z M 10 13.5 m 0 0 h 1 v 1 h -1 z M 10 18.5 m 0 0 h 1 v 1 h -1 z M 10 24.5 m 0 0 h 1 v 1 h -1 z M 10 25.5 m 0 0 h 1 v 1 h -1 z M 10 26.5 m 0 0 h 1 v 1 h -1 z M 11 7.5 m 0 0 h 1 v 1 h -1 z M 11 18.5 m 0 0 h 1 v 1 h -1 z M 11 19.5 m 0 0 h 1 v 1 h -1 z M 11 26.5 m 0 0 h 1 v 1 h -1 z M 12 0.5 m 0 0 h 1 v 1 h -1 z M 12 1.5 m 0 0 h 1 v 1 h -1 z M 12 6.5 m 0 0 h 1 v 1 h -1 z M 12 11.5 m 0 0 h 1 v 1 h -1 z M 12 20.5 m 0 0 h 1 v 1 h -1 z M 12 21.5 m 0 0 h 1 v 1 h -1 z M 12 27.5 m 0 0 h 1 v 1 h -1 z M 13 7.5 m 0 0 h 1 v 1 h -1 z M 13 10.5 m 0 0 h 1 v 1 h -1 z M 13 13.5 m 0 0 h 1 v 1 h -1 z M 13 19.5 m 0 0 h 1 v 1 h -1 z M 13 20.5 m 0 0 h 1 v 1 h -1 z M 14 0.5 m 0 0 h 1 v 1 h -1 z M 14 3.5 m 0 0 h 1 v 1 h -1 z M 14 6.5 m 0 0 h 1 v 1 h -1 z M 14 9.5 m 0 0 h 1 v 1 h -1 z M 14 13.5 m 0 0 h 1 v 1 h -1 z M 14 22.5 m 0 0 h 1 v 1 h -1 z M 14 23.5 m 0 0 h 1 v 1 h -1 z M 14 24.5 m 0 0 h 1 v 1 h -1 z M 14 25.5 m 0 0 h 1 v 1 h -1 z M 14 26.5 m 0 0 h 1 v 1 h -1 z M 14 27.5 m 0 0 h 1 v 1 h -1 z M 15 7.5 m 0 0 h 1 v 1 h -1 z M 15 8.5 m 0 0 h 1 v 1 h -1 z M 15 9.5 m 0 0 h 1 v 1 h -1 z M 15 17.5 m 0 0 h 1 v 1 h -1 z M 15 20.5 m 0 0 h 1 v 1 h -1 z M 15 21.5 m 0 0 h 1 v 1 h -1 z M 16 5.5 m 0 0 h 1 v 1 h -1 z M 16 12.5 m 0 0 h 1 v 1 h -1 z M 16 16.5 m 0 0 h 1 v 1 h -1 z M 17 2.5 m 0 0 h 1 v 1 h -1 z M 17 9.5 m 0 0 h 1 v 1 h -1 z M 17 13.5 m 0 0 h 1 v 1 h -1 z M 17 20.5 m 0 0 h 1 v 1 h -1 z M 17 21.5 m 0 0 h 1 v 1 h -1 z M 17 22.5 m 0 0 h 1 v 1 h -1 z M 18 2.5 m 0 0 h 1 v 1 h -1 z M 18 23.5 m 0 0 h 1 v 1 h -1 z M 18 27.5 m 0 0 h 1 v 1 h -1 z M 19 2.5 m 0 0 h 1 v 1 h -1 z M 19 3.5 m 0 0 h 1 v 1 h -1 z M 19 8.5 m 0 0 h 1 v 1 h -1 z M 19 9.5 m 0 0 h 1 v 1 h -1 z M 19 17.5 m 0 0 h 1 v 1 h -1 z M 19 20.5 m 0 0 h 1 v 1 h -1 z M 19 23.5 m 0 0 h 1 v 1 h -1 z M 19 27.5 m 0 0 h 1 v 1 h -1 z M 20 5.5 m 0 0 h 1 v 1 h -1 z M 20 10.5 m 0 0 h 1 v 1 h -1 z M 20 19.5 m 0 0 h 1 v 1 h -1 z M 20 20.5 m 0 0 h 1 v 1 h -1 z M 20 21.5 m 0 0 h 1 v 1 h -1 z M 20 22.5 m 0 0 h 1 v 1 h -1 z M 20 23.5 m 0 0 h 1 v 1 h -1 z M 21 8.5 m 0 0 h 1 v 1 h -1 z M 21 18.5 m 0 0 h 1 v 1 h -1 z M 21 19.5 m 0 0 h 1 v 1 h -1 z M 21 26.5 m 0 0 h 1 v 1 h -1 z M 21 27.5 m 0 0 h 1 v 1 h -1 z M 22 0.5 m 0 0 h 1 v 1 h -1 z M 22 1.5 m 0 0 h 1 v 1 h -1 z M 22 2.5 m 0 0 h 1 v 1 h -1 z M 22 3.5 m 0 0 h 1 v 1 h -1 z M 22 4.5 m 0 0 h 1 v 1 h -1 z M 22 5.5 m 0 0 h 1 v 1 h -1 z M 22 11.5 m 0 0 h 1 v 1 h -1 z M 22 17.5 m 0 0 h 1 v 1 h -1 z M 23 8.5 m 0 0 h 1 v 1 h -1 z M 23 11.5 m 0 0 h 1 v 1 h -1 z M 23 24.5 m 0 0 h 1 v 1 h -1 z M 23 25.5 m 0 0 h 1 v 1 h -1 z M 24 2.5 m 0 0 h 1 v 1 h -1 z M 24 3.5 m 0 0 h 1 v 1 h -1 z M 24 17.5 m 0 0 h 1 v 1 h -1 z M 24 20.5 m 0 0 h 1 v 1 h -1 z M 24 21.5 m 0 0 h 1 v 1 h -1 z M 24 22.5 m 0 0 h 1 v 1 h -1 z M 24 23.5 m 0 0 h 1 v 1 h -1 z M 24 27.5 m 0 0 h 1 v 1 h -1 z M 25 2.5 m 0 0 h 1 v 1 h -1 z M 25 3.5 m 0 0 h 1 v 1 h -1 z M 25 10.5 m 0 0 h 1 v 1 h -1 z M 25 19.5 m 0 0 h 1 v 1 h -1 z M 25 22.5 m 0 0 h 1 v 1 h -1 z M 25 23.5 m 0 0 h 1 v 1 h -1 z M 25 24.5 m 0 0 h 1 v 1 h -1 z M 25 25.5 m 0 0 h 1 v 1 h -1 z M 25 26.5 m 0 0 h 1 v 1 h -1 z M 26 2.5 m 0 0 h 1 v 1 h -1 z M 26 3.5 m 0 0 h 1 v 1 h -1 z M 26 9.5 m 0 0 h 1 v 1 h -1 z M 26 10.5 m 0 0 h 1 v 1 h -1 z M 26 19.5 m 0 0 h 1 v 1 h -1 z M 26 24.5 m 0 0 h 1 v 1 h -1 z M 26 25.5 m 0 0 h 1 v 1 h -1 z M 27 9.5 m 0 0 h 1 v 1 h -1 z M 27 13.5 m 0 0 h 1 v 1 h -1 z M 27 17.5 m 0 0 h 1 v 1 h -1 z M 27 18.5 m 0 0 h 1 v 1 h -1 z M 27 19.5 m 0 0 h 1 v 1 h -1 z M 27 20.5 m 0 0 h 1 v 1 h -1 z M 28 0.5 m 0 0 h 1 v 1 h -1 z M 28 1.5 m 0 0 h 1 v 1 h -1 z M 28 2.5 m 0 0 h 1 v 1 h -1 z M 28 3.5 m 0 0 h 1 v 1 h -1 z M 28 4.5 m 0 0 h 1 v 1 h -1 z M 28 5.5 m 0 0 h 1 v 1 h -1 z M 28 8.5 m 0 0 h 1 v 1 h -1 z M 28 9.5 m 0 0 h 1 v 1 h -1 z M 28 13.5 m 0 0 h 1 v 1 h -1 z M 28 16.5 m 0 0 h 1 v 1 h -1 z M 28 20.5 m 0 0 h 1 v 1 h -1 z M 28 21.5 m 0 0 h 1 v 1 h -1 z M 28 22.5 m 0 0 h 1 v 1 h -1 z M 28 23.5 m 0 0 h 1 v 1 h -1 z M 28 24.5 m 0 0 h 1 v 1 h -1 z" shape-rendering="crispEdges"/><path d="M 0.5 0 m 0 0 h 1 v 1 h -1 z M 0.5 6 m 0 0 h 1 v 1 h -1 z M 0.5 15 m 0 0 h 1 v 1 h -1 z M 0.5 22 m 0 0 h 1 v 1 h -1 z M 0.5 28 m 0 0 h 1 v 1 h -1 z M 1.5 0 m 0 0 h 1 v 1 h -1 z M 1.5 6 m 0 0 h 1 v 1 h -1 z M 1.5 15 m 0 0 h 1 v 1 h -1 z M 1.5 16 m 0 0 h 1 v 1 h -1 z M 1.5 22 m 0 0 h 1 v 1 h -1 z M 1.5 28 m 0 0 h 1 v 1 h -1 z M 2.5 0 m 0 0 h 1 v 1 h -1 z M 2.5 2 m 0 0 h 1 v 1 h -1 z M 2.5 3 m 0 0 h 1 v 1 h -1 z M 2.5 4 m 0 0 h 1 v 1 h -1 z M 2.5 6 m 0 0 h 1 v 1 h -1 z M 2.5 18 m 0 0 h 1 v 1 h -1 z M 2.5 22 m 0 0 h 1 v 1 h -1 z M 2.5 24 m 0 0 h 1 v 1 h -1 z M 2.5 25 m 0 0 h 1 v 1 h -1 z M 2.5 26 m 0 0 h 1 v 1 h -1 z M 2.5 28 m 0 0 h 1 v 1 h -1 z M 3.5 0 m 0 0 h 1 v 1 h -1 z M 3.5 2 m 0 0 h 1 v 1 h -1 z M 3.5 3 m 0 0 h 1 v 1 h -1 z M 3.5 4 m 0 0 h 1 v 1 h -1 z M 3.5 6 m 0 0 h 1 v 1 h -1 z M 3.5 10 m 0 0 h 1 v 1 h -1 z M 3.5 18 m 0 0 h 1 v 1 h -1 z M 3.5 22 m 0 0 h 1 v 1 h -1 z M 3.5 24 m 0 0 h 1 v 1 h -1 z M 3.5 25 m 0 0 h 1 v 1 h -1 z M 3.5 26 m 0 0 h 1 v 1 h -1 z M 3.5 28 m 0 0 h 1 v 1 h -1 z M 4.5 0 m 0 0 h 1 v 1 h -1 z M 4.5 6 m 0 0 h 1 v 1 h -1 z M 4.5 10 m 0 0 h 1 v 1 h -1 z M 4.5 11 m 0 0 h 1 v 1 h -1 z M 4.5 15 m 0 0 h 1 v 1 h -1 z M 4.5 17 m 0 0 h 1 v 1 h -1 z M 4.5 22 m 0 0 h 1 v 1 h -1 z M 4.5 28 m 0 0 h 1 v 1 h -1 z M 5.5 0 m 0 0 h 1 v 1 h -1 z M 5.5 6 m 0 0 h 1 v 1 h -1 z M 5.5 8 m 0 0 h 1 v 1 h -1 z M 5.5 10 m 0 0 h 1 v 1 h -1 z M 5.5 20 m 0 0 h 1 v 1 h -1 z M 5.5 22 m 0 0 h 1 v 1 h -1 z M 5.5 28 m 0 0 h 1 v 1 h -1 z M 6.5 12 m 0 0 h 1 v 1 h -1 z M 6.5 18 m 0 0 h 1 v 1 h -1 z M 7.5 11 m 0 0 h 1 v 1 h -1 z M 7.5 19 m 0 0 h 1 v 1 h -1 z M 8.5 8 m 0 0 h 1 v 1 h -1 z M 8.5 10 m 0 0 h 1 v 1 h -1 z M 8.5 20 m 0 0 h 1 v 1 h -1 z M 9.5 2 m 0 0 h 1 v 1 h -1 z M 9.5 4 m 0 0 h 1 v 1 h -1 z M 9.5 8 m 0 0 h 1 v 1 h -1 z M 9.5 9 m 0 0 h 1 v 1 h -1 z M 9.5 13 m 0 0 h 1 v 1 h -1 z M 9.5 25 m 0 0 h 1 v 1 h -1 z M 10.5 8 m 0 0 h 1 v 1 h -1 z M 10.5 13 m 0 0 h 1 v 1 h -1 z M 10.5 18 m 0 0 h 1 v 1 h -1 z M 10.5 19 m 0 0 h 1 v 1 h -1 z M 10.5 24 m 0 0 h 1 v 1 h -1 z M 10.5 26 m 0 0 h 1 v 1 h -1 z M 10.5 27 m 0 0 h 1 v 1 h -1 z M 11.5 1 m 0 0 h 1 v 1 h -1 z M 11.5 7 m 0 0 h 1 v 1 h -1 z M 11.5 20 m 0 0 h 1 v 1 h -1 z M 11.5 27 m 0 0 h 1 v 1 h -1 z M 12.5 0 m 0 0 h 1 v 1 h -1 z M 12.5 2 m 0 0 h 1 v 1 h -1 z M 12.5 7 m 0 0 h 1 v 1 h -1 z M 12.5 11 m 0 0 h 1 v 1 h -1 z M 12.5 14 m 0 0 h 1 v 1 h -1 z M 12.5 20 m 0 0 h 1 v 1 h -1 z M 12.5 21 m 0 0 h 1 v 1 h -1 z M 13.5 0 m 0 0 h 1 v 1 h -1 z M 13.5 7 m 0 0 h 1 v 1 h -1 z M 13.5 10 m 0 0 h 1 v 1 h -1 z M 13.5 13 m 0 0 h 1 v 1 h -1 z M 13.5 14 m 0 0 h 1 v 1 h -1 z M 13.5 20 m 0 0 h 1 v 1 h -1 z M 14.5 7 m 0 0 h 1 v 1 h -1 z M 14.5 9 m 0 0 h 1 v 1 h -1 z M 14.5 10 m 0 0 h 1 v 1 h -1 z M 14.5 17 m 0 0 h 1 v 1 h -1 z M 14.5 20 m 0 0 h 1 v 1 h -1 z M 14.5 22 m 0 0 h 1 v 1 h -1 z M 14.5 25 m 0 0 h 1 v 1 h -1 z M 14.5 27 m 0 0 h 1 v 1 h -1 z M 15.5 8 m 0 0 h 1 v 1 h -1 z M 15.5 12 m 0 0 h 1 v 1 h -1 z M 15.5 17 m 0 0 h 1 v 1 h -1 z M 15.5 20 m 0 0 h 1 v 1 h -1 z M 15.5 27 m 0 0 h 1 v 1 h -1 z M 16.5 5 m 0 0 h 1 v 1 h -1 z M 16.5 13 m 0 0 h 1 v 1 h -1 z M 16.5 16 m 0 0 h 1 v 1 h -1 z M 16.5 20 m 0 0 h 1 v 1 h -1 z M 16.5 23 m 0 0 h 1 v 1 h -1 z M 17.5 2 m 0 0 h 1 v 1 h -1 z M 17.5 3 m 0 0 h 1 v 1 h -1 z M 17.5 9 m 0 0 h 1 v 1 h -1 z M 17.5 14 m 0 0 h 1 v 1 h -1 z M 17.5 21 m 0 0 h 1 v 1 h -1 z M 17.5 23 m 0 0 h 1 v 1 h -1 z M 17.5 28 m 0 0 h 1 v 1 h -1 z M 18.5 2 m 0 0 h 1 v 1 h -1 z M 18.5 3 m 0 0 h 1 v 1 h -1 z M 18.5 9 m 0 0 h 1 v 1 h -1 z M 18.5 14 m 0 0 h 1 v 1 h -1 z M 18.5 18 m 0 0 h 1 v 1 h -1 z M 18.5 21 m 0 0 h 1 v 1 h -1 z M 18.5 23 m 0 0 h 1 v 1 h -1 z M 18.5 24 m 0 0 h 1 v 1 h -1 z M 18.5 27 m 0 0 h 1 v 1 h -1 z M 18.5 28 m 0 0 h 1 v 1 h -1 z M 19.5 2 m 0 0 h 1 v 1 h -1 z M 19.5 10 m 0 0 h 1 v 1 h -1 z M 19.5 20 m 0 0 h 1 v 1 h -1 z M 19.5 21 m 0 0 h 1 v 1 h -1 z M 19.5 23 m 0 0 h 1 v 1 h -1 z M 19.5 24 m 0 0 h 1 v 1 h -1 z M 20.5 16 m 0 0 h 1 v 1 h -1 z M 20.5 19 m 0 0 h 1 v 1 h -1 z M 20.5 20 m 0 0 h 1 v 1 h -1 z M 20.5 24 m 0 0 h 1 v 1 h -1 z M 20.5 26 m 0 0 h 1 v 1 h -1 z M 21.5 9 m 0 0 h 1 v 1 h -1 z M 21.5 18 m 0 0 h 1 v 1 h -1 z M 21.5 20 m 0 0 h 1 v 1 h -1 z M 21.5 24 m 0 0 h 1 v 1 h -1 z M 21.5 27 m 0 0 h 1 v 1 h -1 z M 22.5 0 m 0 0 h 1 v 1 h -1 z M 22.5 6 m 0 0 h 1 v 1 h -1 z M 22.5 9 m 0 0 h 1 v 1 h -1 z M 22.5 11 m 0 0 h 1 v 1 h -1 z M 22.5 12 m 0 0 h 1 v 1 h -1 z M 22.5 20 m 0 0 h 1 v 1 h -1 z M 22.5 24 m 0 0 h 1 v 1 h -1 z M 23.5 0 m 0 0 h 1 v 1 h -1 z M 23.5 6 m 0 0 h 1 v 1 h -1 z M 23.5 11 m 0 0 h 1 v 1 h -1 z M 23.5 20 m 0 0 h 1 v 1 h -1 z M 23.5 24 m 0 0 h 1 v 1 h -1 z M 24.5 0 m 0 0 h 1 v 1 h -1 z M 24.5 2 m 0 0 h 1 v 1 h -1 z M 24.5 3 m 0 0 h 1 v 1 h -1 z M 24.5 4 m 0 0 h 1 v 1 h -1 z M 24.5 6 m 0 0 h 1 v 1 h -1 z M 24.5 11 m 0 0 h 1 v 1 h -1 z M 24.5 20 m 0 0 h 1 v 1 h -1 z M 24.5 22 m 0 0 h 1 v 1 h -1 z M 24.5 23 m 0 0 h 1 v 1 h -1 z M 24.5 24 m 0 0 h 1 v 1 h -1 z M 24.5 27 m 0 0 h 1 v 1 h -1 z M 25.5 0 m 0 0 h 1 v 1 h -1 z M 25.5 2 m 0 0 h 1 v 1 h -1 z M 25.5 3 m 0 0 h 1 v 1 h -1 z M 25.5 4 m 0 0 h 1 v 1 h -1 z M 25.5 6 m 0 0 h 1 v 1 h -1 z M 25.5 10 m 0 0 h 1 v 1 h -1 z M 25.5 11 m 0 0 h 1 v 1 h -1 z M 25.5 13 m 0 0 h 1 v 1 h -1 z M 25.5 19 m 0 0 h 1 v 1 h -1 z M 25.5 20 m 0 0 h 1 v 1 h -1 z M 25.5 24 m 0 0 h 1 v 1 h -1 z M 25.5 25 m 0 0 h 1 v 1 h -1 z M 25.5 26 m 0 0 h 1 v 1 h -1 z M 26.5 0 m 0 0 h 1 v 1 h -1 z M 26.5 6 m 0 0 h 1 v 1 h -1 z M 26.5 9 m 0 0 h 1 v 1 h -1 z M 26.5 10 m 0 0 h 1 v 1 h -1 z M 26.5 13 m 0 0 h 1 v 1 h -1 z M 26.5 19 m 0 0 h 1 v 1 h -1 z M 26.5 20 m 0 0 h 1 v 1 h -1 z M 26.5 24 m 0 0 h 1 v 1 h -1 z M 27.5 0 m 0 0 h 1 v 1 h -1 z M 27.5 6 m 0 0 h 1 v 1 h -1 z M 27.5 9 m 0 0 h 1 v 1 h -1 z M 27.5 10 m 0 0 h 1 v 1 h -1 z M 27.5 13 m 0 0 h 1 v 1 h -1 z M 27.5 14 m 0 0 h 1 v 1 h -1 z M 27.5 17 m 0 0 h 1 v 1 h -1 z M 27.5 20 m 0 0 h 1 v 1 h -1 z M 27.5 21 m 0 0 h 1 v 1 h -1 z M 27.5 24 m 0 0 h 1 v 1 h -1 z M 27.5 27 m 0 0 h 1 v 1 h -1 z" shape-rendering="crispEdges"/><path d="M 1 5 m -0.1 1.1 l 0.6 -0.1 a 0.5,0.5 0 0,1 -0.5 -0.5 z M 0 16 m 1.1 -0.1 l -0.1 0.6 a 0.5,0.5 0 0,0 -0.5 -0.5 z M 1 27 m -0.1 1.1 l 0.6 -0.1 a 0.5,0.5 0 0,1 -0.5 -0.5 z M 1 17 m 1.1 -0.1 l -0.1 0.6 a 0.5,0.5 0 0,0 -0.5 -0.5 z M 3 17 m -0.1 1.1 l 0.6 -0.1 a 0.5,0.5 0 0,1 -0.5 -0.5 z M 2 19 m 1.1 -0.1 l -0.1 0.6 a 0.5,0.5 0 0,0 -0.5 -0.5 z M 3 11 m 1.1 -0.1 l -0.1 0.6 a 0.5,0.5 0 0,0 -0.5 -0.5 z M 5 14 m -0.1 1.1 l 0.6 -0.1 a 0.5,0.5 0 0,1 -0.5 -0.5 z M 5 16 m -0.1 1.1 l 0.6 -0.1 a 0.5,0.5 0 0,1 -0.5 -0.5 z M 5 1 m 1.1 -0.1 l -0.1 0.6 a 0.5,0.5 0 0,0 -0.5 -0.5 z M 6 19 m -0.1 1.1 l 0.6 -0.1 a 0.5,0.5 0 0,1 -0.5 -0.5 z M 5 23 m 1.1 -0.1 l -0.1 0.6 a 0.5,0.5 0 0,0 -0.5 -0.5 z M 6 13 m 1.1 -0.1 l -0.1 0.6 a 0.5,0.5 0 0,0 -0.5 -0.5 z M 6 19 m 1.1 -0.1 l -0.1 0.6 a 0.5,0.5 0 0,0 -0.5 -0.5 z M 8 18 m -0.1 1.1 l 0.6 -0.1 a 0.5,0.5 0 0,1 -0.5 -0.5 z M 7 20 m 1.1 -0.1 l -0.1 0.6 a 0.5,0.5 0 0,0 -0.5 -0.5 z M 8 9 m 1.1 -0.1 l -0.1 0.6 a 0.5,0.5 0 0,0 -0.5 -0.5 z M 9 19 m -0.1 1.1 l 0.6 -0.1 a 0.5,0.5 0 0,1 -0.5 -0.5 z M 10 7 m -0.1 1.1 l 0.6 -0.1 a 0.5,0.5 0 0,1 -0.5 -0.5 z M 10 12 m -0.1 1.1 l 0.6 -0.1 a 0.5,0.5 0 0,1 -0.5 -0.5 z M 9 14 m 1.1 -0.1 l -0.1 0.6 a 0.5,0.5 0 0,0 -0.5 -0.5 z M 9 26 m 1.1 -0.1 l -0.1 0.6 a 0.5,0.5 0 0,0 -0.5 -0.5 z M 10 20 m 1.1 -0.1 l -0.1 0.6 a 0.5,0.5 0 0,0 -0.5 -0.5 z M 11 25 m -0.1 1.1 l 0.6 -0.1 a 0.5,0.5 0 0,1 -0.5 -0.5 z M 11 2 m 1.1 -0.1 l -0.1 0.6 a 0.5,0.5 0 0,0 -0.5 -0.5 z M 12 19 m -0.1 1.1 l 0.6 -0.1 a 0.5,0.5 0 0,1 -0.5 -0.5 z M 11 21 m 1.1 -0.1 l -0.1 0.6 a 0.5,0.5 0 0,0 -0.5 -0.5 z M 12 26 m -0.1 1.1 l 0.6 -0.1 a 0.5,0.5 0 0,1 -0.5 -0.5 z M 11 28 m 1.1 -0.1 l -0.1 0.6 a 0.5,0.5 0 0,0 -0.5 -0.5 z M 13 1 m -0.1 1.1 l 0.6 -0.1 a 0.5,0.5 0 0,1 -0.5 -0.5 z M 13 6 m -0.1 1.1 l 0.6 -0.1 a 0.5,0.5 0 0,1 -0.5 -0.5 z M 12 8 m 1.1 -0.1 l -0.1 0.6 a 0.5,0.5 0 0,0 -0.5 -0.5 z M 13 1 m 1.1 -0.1 l -0.1 0.6 a 0.5,0.5 0 0,0 -0.5 -0.5 z M 14 19 m -0.1 1.1 l 0.6 -0.1 a 0.5,0.5 0 0,1 -0.5 -0.5 z M 15 6 m -0.1 1.1 l 0.6 -0.1 a 0.5,0.5 0 0,1 -0.5 -0.5 z M 14 8 m 1.1 -0.1 l -0.1 0.6 a 0.5,0.5 0 0,0 -0.5 -0.5 z M 14 18 m 1.1 -0.1 l -0.1 0.6 a 0.5,0.5 0 0,0 -0.5 -0.5 z M 14 21 m 1.1 -0.1 l -0.1 0.6 a 0.5,0.5 0 0,0 -0.5 -0.5 z M 15 24 m -0.1 1.1 l 0.6 -0.1 a 0.5,0.5 0 0,1 -0.5 -0.5 z M 15 26 m -0.1 1.1 l 0.6 -0.1 a 0.5,0.5 0 0,1 -0.5 -0.5 z M 16 7 m -0.1 1.1 l 0.6 -0.1 a 0.5,0.5 0 0,1 -0.5 -0.5 z M 15 13 m 1.1 -0.1 l -0.1 0.6 a 0.5,0.5 0 0,0 -0.5 -0.5 z M 17 12 m -0.1 1.1 l 0.6 -0.1 a 0.5,0.5 0 0,1 -0.5 -0.5 z M 16 14 m 1.1 -0.1 l -0.1 0.6 a 0.5,0.5 0 0,0 -0.5 -0.5 z M 16 21 m 1.1 -0.1 l -0.1 0.6 a 0.5,0.5 0 0,0 -0.5 -0.5 z M 18 13 m -0.1 1.1 l 0.6 -0.1 a 0.5,0.5 0 0,1 -0.5 -0.5 z M 18 20 m -0.1 1.1 l 0.6 -0.1 a 0.5,0.5 0 0,1 -0.5 -0.5 z M 18 22 m -0.1 1.1 l 0.6 -0.1 a 0.5,0.5 0 0,1 -0.5 -0.5 z M 17 24 m 1.1 -0.1 l -0.1 0.6 a 0.5,0.5 0 0,0 -0.5 -0.5 z M 18 4 m 1.1 -0.1 l -0.1 0.6 a 0.5,0.5 0 0,0 -0.5 -0.5 z M 18 10 m 1.1 -0.1 l -0.1 0.6 a 0.5,0.5 0 0,0 -0.5 -0.5 z M 20 9 m -0.1 1.1 l 0.6 -0.1 a 0.5,0.5 0 0,1 -0.5 -0.5 z M 19 11 m 1.1 -0.1 l -0.1 0.6 a 0.5,0.5 0 0,0 -0.5 -0.5 z M 19 22 m 1.1 -0.1 l -0.1 0.6 a 0.5,0.5 0 0,0 -0.5 -0.5 z M 21 23 m -0.1 1.1 l 0.6 -0.1 a 0.5,0.5 0 0,1 -0.5 -0.5 z M 20 27 m 1.1 -0.1 l -0.1 0.6 a 0.5,0.5 0 0,0 -0.5 -0.5 z M 22 8 m -0.1 1.1 l 0.6 -0.1 a 0.5,0.5 0 0,1 -0.5 -0.5 z M 22 19 m -0.1 1.1 l 0.6 -0.1 a 0.5,0.5 0 0,1 -0.5 -0.5 z M 22 26 m -0.1 1.1 l 0.6 -0.1 a 0.5,0.5 0 0,1 -0.5 -0.5 z M 23 5 m -0.1 1.1 l 0.6 -0.1 a 0.5,0.5 0 0,1 -0.5 -0.5 z M 22 25 m 1.1 -0.1 l -0.1 0.6 a 0.5,0.5 0 0,0 -0.5 -0.5 z M 23 21 m 1.1 -0.1 l -0.1 0.6 a 0.5,0.5 0 0,0 -0.5 -0.5 z M 25 21 m -0.1 1.1 l 0.6 -0.1 a 0.5,0.5 0 0,1 -0.5 -0.5 z M 24 25 m 1.1 -0.1 l -0.1 0.6 a 0.5,0.5 0 0,0 -0.5 -0.5 z M 26 23 m -0.1 1.1 l 0.6 -0.1 a 0.5,0.5 0 0,1 -0.5 -0.5 z M 26 14 m 1.1 -0.1 l -0.1 0.6 a 0.5,0.5 0 0,0 -0.5 -0.5 z M 26 21 m 1.1 -0.1 l -0.1 0.6 a 0.5,0.5 0 0,0 -0.5 -0.5 z M 27 1 m 1.1 -0.1 l -0.1 0.6 a 0.5,0.5 0 0,0 -0.5 -0.5 z M 28 19 m -0.1 1.1 l 0.6 -0.1 a 0.5,0.5 0 0,1 -0.5 -0.5 z M 27 22 m 1.1 -0.1 l -0.1 0.6 a 0.5,0.5 0 0,0 -0.5 -0.5 z M 27 25 m 1.1 -0.1 l -0.1 0.6 a 0.5,0.5 0 0,0 -0.5 -0.5 z M 1 1 m -0.1 -0.1 l 0.1 0.6 a 0.5,0.5 0 0,1 0.5 -0.5 z M 1 23 m -0.1 -0.1 l 0.1 0.6 a 0.5,0.5 0 0,1 0.5 -0.5 z M 1 14 m 1.1 1.1 l -0.1 -0.6 a 0.5,0.5 0 0,1 -0.5 0.5 z M 3 17 m 1.1 1.1 l -0.1 -0.6 a 0.5,0.5 0 0,1 -0.5 0.5 z M 4 19 m -0.1 -0.1 l 0.1 0.6 a 0.5,0.5 0 0,1 0.5 -0.5 z M 5 12 m -0.1 -0.1 l 0.1 0.6 a 0.5,0.5 0 0,1 0.5 -0.5 z M 5 16 m -0.1 -0.1 l 0.1 0.6 a 0.5,0.5 0 0,1 0.5 -0.5 z M 5 18 m -0.1 -0.1 l 0.1 0.6 a 0.5,0.5 0 0,1 0.5 -0.5 z M 5 5 m 1.1 1.1 l -0.1 -0.6 a 0.5,0.5 0 0,1 -0.5 0.5 z M 6 11 m -0.1 -0.1 l 0.1 0.6 a 0.5,0.5 0 0,1 0.5 -0.5 z M 5 27 m 1.1 1.1 l -0.1 -0.6 a 0.5,0.5 0 0,1 -0.5 0.5 z M 6 11 m 1.1 1.1 l -0.1 -0.6 a 0.5,0.5 0 0,1 -0.5 0.5 z M 6 17 m 1.1 1.1 l -0.1 -0.6 a 0.5,0.5 0 0,1 -0.5 0.5 z M 7 10 m 1.1 1.1 l -0.1 -0.6 a 0.5,0.5 0 0,1 -0.5 0.5 z M 8 12 m -0.1 -0.1 l 0.1 0.6 a 0.5,0.5 0 0,1 0.5 -0.5 z M 8 7 m 1.1 1.1 l -0.1 -0.6 a 0.5,0.5 0 0,1 -0.5 0.5 z M 8 9 m 1.1 1.1 l -0.1 -0.6 a 0.5,0.5 0 0,1 -0.5 0.5 z M 9 11 m -0.1 -0.1 l 0.1 0.6 a 0.5,0.5 0 0,1 0.5 -0.5 z M 9 21 m -0.1 -0.1 l 0.1 0.6 a 0.5,0.5 0 0,1 0.5 -0.5 z M 10 10 m -0.1 -0.1 l 0.1 0.6 a 0.5,0.5 0 0,1 0.5 -0.5 z M 9 24 m 1.1 1.1 l -0.1 -0.6 a 0.5,0.5 0 0,1 -0.5 0.5 z M 10 7 m 1.1 1.1 l -0.1 -0.6 a 0.5,0.5 0 0,1 -0.5 0.5 z M 11 9 m -0.1 -0.1 l 0.1 0.6 a 0.5,0.5 0 0,1 0.5 -0.5 z M 11 14 m -0.1 -0.1 l 0.1 0.6 a 0.5,0.5 0 0,1 0.5 -0.5 z M 11 25 m -0.1 -0.1 l 0.1 0.6 a 0.5,0.5 0 0,1 0.5 -0.5 z M 11 0 m 1.1 1.1 l -0.1 -0.6 a 0.5,0.5 0 0,1 -0.5 0.5 z M 11 6 m 1.1 1.1 l -0.1 -0.6 a 0.5,0.5 0 0,1 -0.5 0.5 z M 12 8 m -0.1 -0.1 l 0.1 0.6 a 0.5,0.5 0 0,1 0.5 -0.5 z M 13 1 m -0.1 -0.1 l 0.1 0.6 a 0.5,0.5 0 0,1 0.5 -0.5 z M 12 10 m 1.1 1.1 l -0.1 -0.6 a 0.5,0.5 0 0,1 -0.5 0.5 z M 13 12 m -0.1 -0.1 l 0.1 0.6 a 0.5,0.5 0 0,1 0.5 -0.5 z M 12 13 m 1.1 1.1 l -0.1 -0.6 a 0.5,0.5 0 0,1 -0.5 0.5 z M 12 19 m 1.1 1.1 l -0.1 -0.6 a 0.5,0.5 0 0,1 -0.5 0.5 z M 13 22 m -0.1 -0.1 l 0.1 0.6 a 0.5,0.5 0 0,1 0.5 -0.5 z M 13 6 m 1.1 1.1 l -0.1 -0.6 a 0.5,0.5 0 0,1 -0.5 0.5 z M 14 8 m -0.1 -0.1 l 0.1 0.6 a 0.5,0.5 0 0,1 0.5 -0.5 z M 13 9 m 1.1 1.1 l -0.1 -0.6 a 0.5,0.5 0 0,1 -0.5 0.5 z M 14 11 m -0.1 -0.1 l 0.1 0.6 a 0.5,0.5 0 0,1 0.5 -0.5 z M 14 21 m -0.1 -0.1 l 0.1 0.6 a 0.5,0.5 0 0,1 0.5 -0.5 z M 14 8 m 1.1 1.1 l -0.1 -0.6 a 0.5,0.5 0 0,1 -0.5 0.5 z M 14 21 m 1.1 1.1 l -0.1 -0.6 a 0.5,0.5 0 0,1 -0.5 0.5 z M 15 23 m -0.1 -0.1 l 0.1 0.6 a 0.5,0.5 0 0,1 0.5 -0.5 z M 15 26 m -0.1 -0.1 l 0.1 0.6 a 0.5,0.5 0 0,1 0.5 -0.5 z M 15 28 m -0.1 -0.1 l 0.1 0.6 a 0.5,0.5 0 0,1 0.5 -0.5 z M 16 9 m -0.1 -0.1 l 0.1 0.6 a 0.5,0.5 0 0,1 0.5 -0.5 z M 15 16 m 1.1 1.1 l -0.1 -0.6 a 0.5,0.5 0 0,1 -0.5 0.5 z M 16 18 m -0.1 -0.1 l 0.1 0.6 a 0.5,0.5 0 0,1 0.5 -0.5 z M 16 21 m -0.1 -0.1 l 0.1 0.6 a 0.5,0.5 0 0,1 0.5 -0.5 z M 17 6 m -0.1 -0.1 l 0.1 0.6 a 0.5,0.5 0 0,1 0.5 -0.5 z M 17 17 m -0.1 -0.1 l 0.1 0.6 a 0.5,0.5 0 0,1 0.5 -0.5 z M 16 22 m 1.1 1.1 l -0.1 -0.6 a 0.5,0.5 0 0,1 -0.5 0.5 z M 18 10 m -0.1 -0.1 l 0.1 0.6 a 0.5,0.5 0 0,1 0.5 -0.5 z M 18 22 m -0.1 -0.1 l 0.1 0.6 a 0.5,0.5 0 0,1 0.5 -0.5 z M 17 27 m 1.1 1.1 l -0.1 -0.6 a 0.5,0.5 0 0,1 -0.5 0.5 z M 18 8 m 1.1 1.1 l -0.1 -0.6 a 0.5,0.5 0 0,1 -0.5 0.5 z M 18 17 m 1.1 1.1 l -0.1 -0.6 a 0.5,0.5 0 0,1 -0.5 0.5 z M 18 20 m 1.1 1.1 l -0.1 -0.6 a 0.5,0.5 0 0,1 -0.5 0.5 z M 20 3 m -0.1 -0.1 l 0.1 0.6 a 0.5,0.5 0 0,1 0.5 -0.5 z M 19 19 m 1.1 1.1 l -0.1 -0.6 a 0.5,0.5 0 0,1 -0.5 0.5 z M 19 22 m 1.1 1.1 l -0.1 -0.6 a 0.5,0.5 0 0,1 -0.5 0.5 z M 20 18 m 1.1 1.1 l -0.1 -0.6 a 0.5,0.5 0 0,1 -0.5 0.5 z M 21 21 m -0.1 -0.1 l 0.1 0.6 a 0.5,0.5 0 0,1 0.5 -0.5 z M 21 17 m 1.1 1.1 l -0.1 -0.6 a 0.5,0.5 0 0,1 -0.5 0.5 z M 22 19 m -0.1 -0.1 l 0.1 0.6 a 0.5,0.5 0 0,1 0.5 -0.5 z M 22 28 m -0.1 -0.1 l 0.1 0.6 a 0.5,0.5 0 0,1 0.5 -0.5 z M 23 1 m -0.1 -0.1 l 0.1 0.6 a 0.5,0.5 0 0,1 0.5 -0.5 z M 22 8 m 1.1 1.1 l -0.1 -0.6 a 0.5,0.5 0 0,1 -0.5 0.5 z M 24 12 m -0.1 -0.1 l 0.1 0.6 a 0.5,0.5 0 0,1 0.5 -0.5 z M 23 23 m 1.1 1.1 l -0.1 -0.6 a 0.5,0.5 0 0,1 -0.5 0.5 z M 24 25 m -0.1 -0.1 l 0.1 0.6 a 0.5,0.5 0 0,1 0.5 -0.5 z M 24 10 m 1.1 1.1 l -0.1 -0.6 a 0.5,0.5 0 0,1 -0.5 0.5 z M 24 19 m 1.1 1.1 l -0.1 -0.6 a 0.5,0.5 0 0,1 -0.5 0.5 z M 25 21 m -0.1 -0.1 l 0.1 0.6 a 0.5,0.5 0 0,1 0.5 -0.5 z M 24 26 m 1.1 1.1 l -0.1 -0.6 a 0.5,0.5 0 0,1 -0.5 0.5 z M 25 28 m -0.1 -0.1 l 0.1 0.6 a 0.5,0.5 0 0,1 0.5 -0.5 z M 25 9 m 1.1 1.1 l -0.1 -0.6 a 0.5,0.5 0 0,1 -0.5 0.5 z M 26 27 m -0.1 -0.1 l 0.1 0.6 a 0.5,0.5 0 0,1 0.5 -0.5 z M 27 11 m -0.1 -0.1 l 0.1 0.6 a 0.5,0.5 0 0,1 0.5 -0.5 z M 26 18 m 1.1 1.1 l -0.1 -0.6 a 0.5,0.5 0 0,1 -0.5 0.5 z M 27 25 m -0.1 -0.1 l 0.1 0.6 a 0.5,0.5 0 0,1 0.5 -0.5 z M 27 5 m 1.1 1.1 l -0.1 -0.6 a 0.5,0.5 0 0,1 -0.5 0.5 z M 27 8 m 1.1 1.1 l -0.1 -0.6 a 0.5,0.5 0 0,1 -0.5 0.5 z M 27 16 m 1.1 1.1 l -0.1 -0.6 a 0.5,0.5 0 0,1 -0.5 0.5 z M 28 18 m -0.1 -0.1 l 0.1 0.6 a 0.5,0.5 0 0,1 0.5 -0.5 z M 27 23 m 1.1 1.1 l -0.1 -0.6 a 0.5,0.5 0 0,1 -0.5 0.5 z"/></svg>
