<svg xmlns="http://www.w3.org/2000/svg" version="1.1" viewBox="0 0 42 42">
    <path d="M1 0h2h2h2h2h2h2l0.25 0.25h0.5v0.5l0.25 0.25v2v2v2v2v2v2v0.25l-0.75 0.75h-0.25h-2h-2h-2h-2h-2h-2h-1v-1v-2v-2v-2v-2v-2v-2a1,1 0 0,1 1,-1M1 16l0.25 0.25h0.5v0.5l0.25 0.25v0.25l-0.75 0.75h-0.25h-1v-1a1,1 0 0,1 1,-1M1 20a1,1 0 0,0 1,-1a1,1 0 0,1 1,-1l0.25 0.25h0.5v0.5l0.25 0.25l0.25 0.75l0.75 0.25a1,1 0 0,0 1,-1a1,1 0 0,1 1,-1a1,1 0 0,0 1,-1a1,1 0 0,1 1,-1l0.25 0.25h0.5v0.5l0.25 0.25l0.25 0.75l0.75 0.25l0.25 0.25h0.5v0.5l0.25 0.25v0.25l-0.75 0.75h-0.25h-2h-0.25l-0.75 0.75v0.25v2v0.25l-0.75 0.75h-0.25h-2h-0.25l-0.75 0.75v0.25v0.25l-0.75 0.75h-0.25h-2h-1v-1v-2v-2a1,1 0 0,1 1,-1M1 28h2h2h2h2h2h2l0.25 0.25h0.5v0.5l0.25 0.25v2v2v2v2v2v2v0.25l-0.75 0.75h-0.25h-2h-2h-2h-2h-2h-2h-1v-1v-2v-2v-2v-2v-2v-2a1,1 0 0,1 1,-1M3 12h2h2h2h2a1,1 0 0,0 1,-1v-2v-2v-2v-2v-1h-1h-2h-2h-2h-2h-0.25l-0.75 0.75v0.25v2v2v2v2l0.25 0.75l0.75 0.25M3 40h2h2h2h2a1,1 0 0,0 1,-1v-2v-2v-2v-2v-1h-1h-2h-2h-2h-2h-0.25l-0.75 0.75v0.25v2v2v2v2l0.25 0.75l0.75 0.25M5 4h2h2l0.25 0.25h0.5v0.5l0.25 0.25v2v2v0.25l-0.75 0.75h-0.25h-2h-2h-1v-1v-2v-2a1,1 0 0,1 1,-1M5 32h2h2l0.25 0.25h0.5v0.5l0.25 0.25v2v2v0.25l-0.75 0.75h-0.25h-2h-2h-1v-1v-2v-2a1,1 0 0,1 1,-1M11 22l0.25 0.25h0.5v0.5l0.25 0.25l0.25 0.75l0.75 0.25a1,1 0 0,0 1,-1a1,1 0 0,1 1,-1a1,1 0 0,0 1,-1a1,1 0 0,1 1,-1l0.25 0.25h0.5v0.5l0.25 0.25v2l0.25 0.75l0.75 0.25a1,1 0 0,0 1,-1a1,1 0 0,1 1,-1l0.25 0.25h0.5v0.5l0.25 0.25v2v2l0.25 0.75l0.75 0.25l0.25 0.25h0.5v0.5l0.25 0.25v2l0.25 0.75l0.75 0.25l0.25 0.25h0.5v0.5l0.25 0.25v0.25l-0.75 0.75h-0.25h-2h-0.25l-0.75 0.75v0.25v2v0.25l-0.75 0.75h-0.25h-1v-1v-2v-1h-1h-2h-1v-1a1,1 0 0,1 1,-1a1,1 0 0,0 1,-1a1,1 0 0,1 1,-1l0.25 0.25h0.5v0.5l0.25 0.25l0.25 0.75l0.75 0.25a1,1 0 0,0 1,-1v-1h-1h-1v-1v-2v-1h-1h-0.25l-0.75 0.75v0.25v2v0.25l-0.75 0.75h-0.25h-1v-1v-2v-1h-1h-2h-2h-1v-1v-2a1,1 0 0,1 1,-1M13 16h2a1,1 0 0,0 1,-1v-2v-2v-2v-2a1,1 0 0,1 1,-1h2h2l0.25 0.25h0.5v0.5l0.25 0.25v2l0.25 0.75l0.75 0.25l0.25 0.25h0.5v0.5l0.25 0.25v0.25l-0.75 0.75h-0.25h-0.25l-0.75 0.75v0.25l0.25 0.75l0.75 0.25a1,1 0 0,0 1,-1a1,1 0 0,1 1,-1l0.25 0.25h0.5v0.5l0.25 0.25v2v0.25l-0.75 0.75h-0.25h-0.25l-0.75 0.75v0.25v0.25l-0.75 0.75h-0.25h-2h-2h-2h-2h-2h-1v-1a1,1 0 0,1 1,-1M13 20l0.25 0.25h0.5v0.5l0.25 0.25v0.25l-0.75 0.75h-0.25h-1v-1a1,1 0 0,1 1,-1M17 0h2l0.25 0.25h0.5v0.5l0.25 0.25v2v0.25l-0.75 0.75h-0.25h-1v-1v-1h-1h-1v-1a1,1 0 0,1 1,-1M17 40l0.25 0.25h0.5v0.5l0.25 0.25v0.25l-0.75 0.75h-0.25h-1v-1a1,1 0 0,1 1,-1M19 16a1,1 0 0,0 1,-1v-2v-1h-1h-0.25l-0.75 0.75v0.25v2l0.25 0.75l0.75 0.25M19 38l0.25 0.25h0.5v0.5l0.25 0.25v0.25l-0.75 0.75h-0.25h-1v-1a1,1 0 0,1 1,-1M23 0l0.25 0.25h0.5v0.5l0.25 0.25l0.25 0.75l0.75 0.25l0.25 0.25h0.5v0.5l0.25 0.25v0.25l-0.75 0.75h-0.25h-2h-1v-1v-2a1,1 0 0,1 1,-1M23 20l0.25 0.25h0.5v0.5l0.25 0.25v0.25l-0.75 0.75h-0.25h-1v-1a1,1 0 0,1 1,-1M23 38l0.25 0.25h0.5v0.5l0.25 0.25v2v0.25l-0.75 0.75h-0.25h-1v-1v-2a1,1 0 0,1 1,-1M25 6l0.25 0.25h0.5v0.5l0.25 0.25v2v0.25l-0.75 0.75h-0.25h-1v-1v-2a1,1 0 0,1 1,-1M25 18l0.25 0.25h0.5v0.5l0.25 0.25v0.25l-0.75 0.75h-0.25h-1v-1a1,1 0 0,1 1,-1M25 24a1,1 0 0,0 1,-1v-2a1,1 0 0,1 1,-1a1,1 0 0,0 1,-1v-1h-1h-1v-1a1,1 0 0,1 1,-1h2h2h2h2l0.25 0.25h0.5v0.5l0.25 0.25l0.25 0.75l0.75 0.25h2l0.25 0.25h0.5v0.5l0.25 0.25v2v0.25l-0.75 0.75h-0.25h-1v-1v-1h-1h-2h-1v-1v-1h-1h-0.25l-0.75 0.75v0.25v0.25l-0.75 0.75h-0.25h-0.25l-0.75 0.75v0.25v0.25l-0.75 0.75h-0.25h-0.25l-0.75 0.75v0.25v2v0.25l-0.75 0.75h-0.25h-2h-1v-1a1,1 0 0,1 1,-1M27 28h2h2a1,1 0 0,0 1,-1a1,1 0 0,1 1,-1h2l0.25 0.25h0.5v0.5l0.25 0.25v2v0.25l-0.75 0.75h-0.25h-0.25l-0.75 0.75v0.25v2l0.25 0.75l0.75 0.25l0.25 0.25h0.5v0.5l0.25 0.25v2v0.25l-0.75 0.75h-0.25h-2h-2h-2h-1v-1v-1h-1h-1v-1a1,1 0 0,1 1,-1h2l0.25 0.25h0.5v0.5l0.25 0.25l0.25 0.75l0.75 0.25a1,1 0 0,0 1,-1v-1h-1h-1v-1v-2v-1h-1h-0.25l-0.75 0.75v0.25v0.25l-0.75 0.75h-0.25h-1v-1v-2a1,1 0 0,1 1,-1M27 38l0.25 0.25h0.5v0.5l0.25 0.25v2v0.25l-0.75 0.75h-0.25h-1v-1v-2a1,1 0 0,1 1,-1M29 0h2h2h2h2h2h2l0.25 0.25h0.5v0.5l0.25 0.25v2v2v2v2v2v2v0.25l-0.75 0.75h-0.25h-2h-2h-2h-2h-2h-2h-1v-1v-2v-2v-2v-2v-2v-2a1,1 0 0,1 1,-1M31 12h2h2h2h2a1,1 0 0,0 1,-1v-2v-2v-2v-2v-1h-1h-2h-2h-2h-2h-0.25l-0.75 0.75v0.25v2v2v2v2l0.25 0.75l0.75 0.25M31 22a1,1 0 0,0 1,-1a1,1 0 0,1 1,-1l0.25 0.25h0.5v0.5l0.25 0.25v2v0.25l-0.75 0.75h-0.25h-2h-1v-1a1,1 0 0,1 1,-1M31 40h2l0.25 0.25h0.5v0.5l0.25 0.25v0.25l-0.75 0.75h-0.25h-2h-1v-1a1,1 0 0,1 1,-1M33 4h2h2l0.25 0.25h0.5v0.5l0.25 0.25v2v2v0.25l-0.75 0.75h-0.25h-2h-2h-1v-1v-2v-2a1,1 0 0,1 1,-1M39 24l0.25 0.25h0.5v0.5l0.25 0.25l0.25 0.75l0.75 0.25l0.25 0.25h0.5v0.5l0.25 0.25v0.25l-0.75 0.75h-0.25h-0.25l-0.75 0.75v0.25v2v0.25l-0.75 0.75h-0.25h-1v-1v-2v-2v-2a1,1 0 0,1 1,-1M39 34h2l0.25 0.25h0.5v0.5l0.25 0.25v0.25l-0.75 0.75h-0.25h-2h-1v-1a1,1 0 0,1 1,-1M41 16l0.25 0.25h0.5v0.5l0.25 0.25v0.25l-0.75 0.75h-0.25h-1v-1a1,1 0 0,1 1,-1M41 40l0.25 0.25h0.5v0.5l0.25 0.25v0.25l-0.75 0.75h-0.25h-1v-1a1,1 0 0,1 1,-1"
          fill-rule="evenodd"/>
</svg>
