<svg xmlns="http://www.w3.org/2000/svg" version="1.1" viewBox="-1 -1 60 60">
    <linearGradient id="grad" x1="0" y1="1" x2="1" y2="0">
        <stop offset="0" stop-color="Orange"/>
        <stop offset="1" stop-color="DeepPink"/>
    </linearGradient>
    <path d="M1 0h2h2h2h2h2h2a1,1 0 0,1 1,1v2v2v2v2v2v2a1,1 0 0,1 -1,1h-2h-2h-2h-2h-2h-2a1,1 0 0,1 -1,-1v-2v-2v-2v-2v-2v-2a1,1 0 0,1 1,-1M1 16a1,1 0 0,1 1,1a1,1 0 0,1 -1,1a1,1 0 0,1 -1,-1a1,1 0 0,1 1,-1M1 24a1,1 0 0,0 1,-1a1,1 0 0,1 1,-1a1,1 0 0,1 1,1a1,1 0 0,0 1,1a1,1 0 0,1 1,1v2a1,1 0 0,1 -1,1a1,1 0 0,1 -1,-1a1,1 0 0,0 -1,-1a1,1 0 0,0 -1,1a1,1 0 0,0 1,1a1,1 0 0,1 1,1a1,1 0 0,1 -1,1h-2a1,1 0 0,1 -1,-1v-2v-2a1,1 0 0,1 1,-1M1 36a1,1 0 0,1 1,1a1,1 0 0,1 -1,1a1,1 0 0,1 -1,-1a1,1 0 0,1 1,-1M1 40a1,1 0 0,1 1,1a1,1 0 0,1 -1,1a1,1 0 0,1 -1,-1a1,1 0 0,1 1,-1M1 44h2h2h2h2h2h2a1,1 0 0,1 1,1v2v2v2v2v2v2a1,1 0 0,1 -1,1h-2h-2h-2h-2h-2h-2a1,1 0 0,1 -1,-1v-2v-2v-2v-2v-2v-2a1,1 0 0,1 1,-1M3 12h2h2h2h2a1,1 0 0,0 1,-1v-2v-2v-2v-2a1,1 0 0,0 -1,-1h-2h-2h-2h-2a1,1 0 0,0 -1,1v2v2v2v2a1,1 0 0,0 1,1M3 56h2h2h2h2a1,1 0 0,0 1,-1v-2v-2v-2v-2a1,1 0 0,0 -1,-1h-2h-2h-2h-2a1,1 0 0,0 -1,1v2v2v2v2a1,1 0 0,0 1,1M5 4h2h2a1,1 0 0,1 1,1v2v2a1,1 0 0,1 -1,1h-2h-2a1,1 0 0,1 -1,-1v-2v-2a1,1 0 0,1 1,-1M5 18a1,1 0 0,1 1,1v2a1,1 0 0,1 -1,1a1,1 0 0,1 -1,-1v-2a1,1 0 0,1 1,-1M5 30a1,1 0 0,1 1,1a1,1 0 0,1 -1,1a1,1 0 0,1 -1,-1a1,1 0 0,1 1,-1M5 34h2a1,1 0 0,1 1,1v2a1,1 0 0,0 1,1a1,1 0 0,1 1,1a1,1 0 0,1 -1,1h-2a1,1 0 0,0 -1,1a1,1 0 0,1 -1,1a1,1 0 0,1 -1,-1v-2v-2v-2a1,1 0 0,1 1,-1M5 48h2h2a1,1 0 0,1 1,1v2v2a1,1 0 0,1 -1,1h-2h-2a1,1 0 0,1 -1,-1v-2v-2a1,1 0 0,1 1,-1M7 16a1,1 0 0,1 1,1a1,1 0 0,1 -1,1a1,1 0 0,1 -1,-1a1,1 0 0,1 1,-1M7 22a1,1 0 0,1 1,1a1,1 0 0,1 -1,1a1,1 0 0,1 -1,-1a1,1 0 0,1 1,-1M7 28h2a1,1 0 0,1 1,1a1,1 0 0,1 -1,1h-2a1,1 0 0,1 -1,-1a1,1 0 0,1 1,-1M9 18a1,1 0 0,1 1,1v2a1,1 0 0,1 -1,1a1,1 0 0,1 -1,-1v-2a1,1 0 0,1 1,-1M11 16h2a1,1 0 0,1 1,1a1,1 0 0,1 -1,1h-2a1,1 0 0,1 -1,-1a1,1 0 0,1 1,-1M11 22a1,1 0 0,1 1,1a1,1 0 0,1 -1,1a1,1 0 0,1 -1,-1a1,1 0 0,1 1,-1M11 32h2a1,1 0 0,1 1,1a1,1 0 0,1 -1,1a1,1 0 0,0 -1,1a1,1 0 0,1 -1,1a1,1 0 0,1 -1,-1v-2a1,1 0 0,1 1,-1M11 40h2a1,1 0 0,1 1,1a1,1 0 0,1 -1,1h-2a1,1 0 0,1 -1,-1a1,1 0 0,1 1,-1M13 20a1,1 0 0,1 1,1a1,1 0 0,1 -1,1a1,1 0 0,1 -1,-1a1,1 0 0,1 1,-1M13 24a1,1 0 0,0 1,-1a1,1 0 0,1 1,-1a1,1 0 0,0 1,-1a1,1 0 0,0 -1,-1a1,1 0 0,1 -1,-1a1,1 0 0,1 1,-1a1,1 0 0,0 1,-1a1,1 0 0,1 1,-1a1,1 0 0,1 1,1a1,1 0 0,0 1,1a1,1 0 0,0 1,-1a1,1 0 0,1 1,-1a1,1 0 0,0 1,-1a1,1 0 0,1 1,-1a1,1 0 0,0 1,-1a1,1 0 0,1 1,-1a1,1 0 0,1 1,1a1,1 0 0,0 1,1a1,1 0 0,1 1,1a1,1 0 0,1 -1,1h-2a1,1 0 0,0 -1,1a1,1 0 0,1 -1,1a1,1 0 0,0 -1,1a1,1 0 0,1 -1,1a1,1 0 0,0 -1,1a1,1 0 0,1 -1,1a1,1 0 0,0 -1,1a1,1 0 0,1 -1,1a1,1 0 0,0 -1,1a1,1 0 0,0 1,1a1,1 0 0,1 1,1a1,1 0 0,1 -1,1a1,1 0 0,0 -1,1a1,1 0 0,0 1,1a1,1 0 0,0 1,-1a1,1 0 0,1 1,-1a1,1 0 0,0 1,-1a1,1 0 0,1 1,-1a1,1 0 0,0 1,-1a1,1 0 0,1 1,-1h2a1,1 0 0,1 1,1a1,1 0 0,1 -1,1a1,1 0 0,0 -1,1a1,1 0 0,1 -1,1a1,1 0 0,0 -1,1v2a1,1 0 0,1 -1,1h-2a1,1 0 0,0 -1,1a1,1 0 0,1 -1,1a1,1 0 0,1 -1,-1a1,1 0 0,0 -1,-1a1,1 0 0,1 -1,-1a1,1 0 0,0 -1,-1a1,1 0 0,1 -1,-1a1,1 0 0,1 1,-1a1,1 0 0,0 1,-1a1,1 0 0,0 -1,-1a1,1 0 0,1 -1,-1a1,1 0 0,1 1,-1M13 36a1,1 0 0,1 1,1a1,1 0 0,1 -1,1a1,1 0 0,1 -1,-1a1,1 0 0,1 1,-1M17 10a1,1 0 0,1 1,1v2a1,1 0 0,1 -1,1a1,1 0 0,1 -1,-1v-2a1,1 0 0,1 1,-1M17 38a1,1 0 0,0 1,-1v-2a1,1 0 0,1 1,-1h2a1,1 0 0,1 1,1a1,1 0 0,1 -1,1a1,1 0 0,0 -1,1a1,1 0 0,0 1,1a1,1 0 0,1 1,1a1,1 0 0,0 1,1a1,1 0 0,1 1,1a1,1 0 0,1 -1,1h-2a1,1 0 0,1 -1,-1a1,1 0 0,0 -1,-1h-2a1,1 0 0,1 -1,-1a1,1 0 0,1 1,-1M17 42h2a1,1 0 0,1 1,1v2v2a1,1 0 0,1 -1,1h-2a1,1 0 0,1 -1,-1a1,1 0 0,1 1,-1a1,1 0 0,0 1,-1a1,1 0 0,0 -1,-1a1,1 0 0,1 -1,-1a1,1 0 0,1 1,-1M17 50a1,1 0 0,1 1,1a1,1 0 0,1 -1,1a1,1 0 0,1 -1,-1a1,1 0 0,1 1,-1M17 56a1,1 0 0,0 1,-1v-2a1,1 0 0,1 1,-1a1,1 0 0,0 1,-1a1,1 0 0,1 1,-1a1,1 0 0,0 1,-1v-2v-2a1,1 0 0,1 1,-1h2a1,1 0 0,1 1,1v2a1,1 0 0,1 -1,1a1,1 0 0,0 -1,1v2v2a1,1 0 0,1 -1,1a1,1 0 0,0 -1,1v2a1,1 0 0,1 -1,1h-2h-2a1,1 0 0,1 -1,-1a1,1 0 0,1 1,-1M19 4a1,1 0 0,1 1,1a1,1 0 0,1 -1,1a1,1 0 0,1 -1,-1a1,1 0 0,1 1,-1M21 0a1,1 0 0,1 1,1a1,1 0 0,1 -1,1a1,1 0 0,1 -1,-1a1,1 0 0,1 1,-1M21 6a1,1 0 0,1 1,1a1,1 0 0,0 1,1h2a1,1 0 0,1 1,1a1,1 0 0,1 -1,1a1,1 0 0,0 -1,1a1,1 0 0,1 -1,1a1,1 0 0,0 -1,1a1,1 0 0,1 -1,1a1,1 0 0,1 -1,-1v-2v-2v-2a1,1 0 0,1 1,-1M23 20a1,1 0 0,1 1,1a1,1 0 0,1 -1,1a1,1 0 0,1 -1,-1a1,1 0 0,1 1,-1M23 36a1,1 0 0,1 1,1a1,1 0 0,1 -1,1a1,1 0 0,1 -1,-1a1,1 0 0,1 1,-1M25 0a1,1 0 0,1 1,1a1,1 0 0,1 -1,1a1,1 0 0,1 -1,-1a1,1 0 0,1 1,-1M25 4a1,1 0 0,1 1,1a1,1 0 0,1 -1,1a1,1 0 0,1 -1,-1a1,1 0 0,1 1,-1M25 18h2a1,1 0 0,1 1,1a1,1 0 0,0 1,1a1,1 0 0,1 1,1a1,1 0 0,1 -1,1a1,1 0 0,0 -1,1a1,1 0 0,1 -1,1a1,1 0 0,1 -1,-1v-2a1,1 0 0,0 -1,-1a1,1 0 0,1 -1,-1a1,1 0 0,1 1,-1M25 30a1,1 0 0,1 1,1a1,1 0 0,0 1,1a1,1 0 0,1 1,1a1,1 0 0,0 1,1a1,1 0 0,1 1,1v2v2a1,1 0 0,1 -1,1a1,1 0 0,1 -1,-1v-2a1,1 0 0,0 -1,-1a1,1 0 0,1 -1,-1a1,1 0 0,0 -1,-1a1,1 0 0,1 -1,-1v-2a1,1 0 0,1 1,-1M25 38a1,1 0 0,1 1,1a1,1 0 0,1 -1,1a1,1 0 0,1 -1,-1a1,1 0 0,1 1,-1M27 2a1,1 0 0,1 1,1a1,1 0 0,1 -1,1a1,1 0 0,1 -1,-1a1,1 0 0,1 1,-1M27 6a1,1 0 0,1 1,1a1,1 0 0,1 -1,1a1,1 0 0,1 -1,-1a1,1 0 0,1 1,-1M27 26a1,1 0 0,0 1,-1a1,1 0 0,1 1,-1a1,1 0 0,1 1,1v2v2a1,1 0 0,1 -1,1h-2a1,1 0 0,1 -1,-1v-2a1,1 0 0,1 1,-1M27 50a1,1 0 0,1 1,1v2a1,1 0 0,0 1,1a1,1 0 0,1 1,1v2a1,1 0 0,1 -1,1h-2a1,1 0 0,1 -1,-1v-2v-2v-2a1,1 0 0,1 1,-1M29 4a1,1 0 0,0 1,-1v-2a1,1 0 0,1 1,-1a1,1 0 0,1 1,1a1,1 0 0,0 1,1a1,1 0 0,1 1,1a1,1 0 0,0 1,1h2a1,1 0 0,1 1,1a1,1 0 0,0 1,1a1,1 0 0,1 1,1a1,1 0 0,1 -1,1a1,1 0 0,0 -1,1a1,1 0 0,1 -1,1a1,1 0 0,0 -1,1a1,1 0 0,1 -1,1a1,1 0 0,1 -1,-1a1,1 0 0,0 -1,-1a1,1 0 0,0 -1,1a1,1 0 0,1 -1,1a1,1 0 0,1 -1,-1a1,1 0 0,0 -1,-1a1,1 0 0,1 -1,-1a1,1 0 0,1 1,-1h2h2h2a1,1 0 0,0 1,-1a1,1 0 0,0 -1,-1h-2h-2h-2a1,1 0 0,1 -1,-1a1,1 0 0,1 1,-1M29 12a1,1 0 0,1 1,1a1,1 0 0,1 -1,1a1,1 0 0,1 -1,-1a1,1 0 0,1 1,-1M29 16h2h2a1,1 0 0,1 1,1a1,1 0 0,1 -1,1h-2h-2a1,1 0 0,1 -1,-1a1,1 0 0,1 1,-1M29 42a1,1 0 0,1 1,1a1,1 0 0,1 -1,1a1,1 0 0,1 -1,-1a1,1 0 0,1 1,-1M29 46a1,1 0 0,1 1,1a1,1 0 0,1 -1,1a1,1 0 0,1 -1,-1a1,1 0 0,1 1,-1M31 30a1,1 0 0,1 1,1a1,1 0 0,1 -1,1a1,1 0 0,1 -1,-1a1,1 0 0,1 1,-1M33 12a1,1 0 0,1 1,1a1,1 0 0,1 -1,1a1,1 0 0,1 -1,-1a1,1 0 0,1 1,-1M33 32a1,1 0 0,0 1,-1v-2a1,1 0 0,1 1,-1a1,1 0 0,1 1,1a1,1 0 0,0 1,1a1,1 0 0,1 1,1a1,1 0 0,1 -1,1a1,1 0 0,0 -1,1a1,1 0 0,1 -1,1a1,1 0 0,0 -1,1a1,1 0 0,1 -1,1a1,1 0 0,1 -1,-1v-2a1,1 0 0,1 1,-1M33 40a1,1 0 0,1 1,1v2a1,1 0 0,1 -1,1a1,1 0 0,1 -1,-1v-2a1,1 0 0,1 1,-1M33 46a1,1 0 0,1 1,1a1,1 0 0,1 -1,1a1,1 0 0,1 -1,-1a1,1 0 0,1 1,-1M33 56a1,1 0 0,0 1,-1a1,1 0 0,1 1,-1h2a1,1 0 0,0 1,-1v-2a1,1 0 0,1 1,-1a1,1 0 0,0 1,-1v-2v-2a1,1 0 0,0 -1,-1a1,1 0 0,0 -1,1a1,1 0 0,1 -1,1h-2a1,1 0 0,1 -1,-1a1,1 0 0,1 1,-1a1,1 0 0,0 1,-1a1,1 0 0,1 1,-1a1,1 0 0,0 1,-1a1,1 0 0,1 1,-1a1,1 0 0,0 1,-1a1,1 0 0,1 1,-1a1,1 0 0,0 1,-1a1,1 0 0,0 -1,-1a1,1 0 0,1 -1,-1v-2v-2v-2a1,1 0 0,0 -1,-1a1,1 0 0,1 -1,-1a1,1 0 0,1 1,-1a1,1 0 0,0 1,-1a1,1 0 0,0 -1,-1h-2a1,1 0 0,1 -1,-1v-2a1,1 0 0,1 1,-1h2a1,1 0 0,1 1,1a1,1 0 0,0 1,1a1,1 0 0,1 1,1a1,1 0 0,0 1,1h2a1,1 0 0,1 1,1a1,1 0 0,1 -1,1a1,1 0 0,0 -1,1a1,1 0 0,1 -1,1a1,1 0 0,0 -1,1a1,1 0 0,0 1,1a1,1 0 0,0 1,-1a1,1 0 0,1 1,-1h2h2h2h2h2h2a1,1 0 0,1 1,1a1,1 0 0,1 -1,1a1,1 0 0,0 -1,1v2a1,1 0 0,1 -1,1a1,1 0 0,1 -1,-1v-2a1,1 0 0,0 -1,-1a1,1 0 0,0 -1,1a1,1 0 0,1 -1,1a1,1 0 0,1 -1,-1a1,1 0 0,0 -1,-1h-2a1,1 0 0,0 -1,1a1,1 0 0,1 -1,1h-2a1,1 0 0,0 -1,1a1,1 0 0,0 1,1h2a1,1 0 0,0 1,-1a1,1 0 0,1 1,-1a1,1 0 0,1 1,1v2a1,1 0 0,0 1,1a1,1 0 0,1 1,1v2v2v2v2a1,1 0 0,0 1,1h2a1,1 0 0,1 1,1a1,1 0 0,1 -1,1h-2a1,1 0 0,0 -1,1a1,1 0 0,0 1,1h2a1,1 0 0,0 1,-1a1,1 0 0,1 1,-1h2a1,1 0 0,1 1,1a1,1 0 0,1 -1,1a1,1 0 0,0 -1,1a1,1 0 0,1 -1,1a1,1 0 0,0 -1,1a1,1 0 0,1 -1,1h-2a1,1 0 0,0 -1,1a1,1 0 0,0 1,1a1,1 0 0,1 1,1a1,1 0 0,1 -1,1h-2h-2h-2h-2h-2a1,1 0 0,1 -1,-1a1,1 0 0,0 -1,-1h-2a1,1 0 0,0 -1,1a1,1 0 0,1 -1,1h-2a1,1 0 0,1 -1,-1a1,1 0 0,1 1,-1M35 0a1,1 0 0,1 1,1a1,1 0 0,1 -1,1a1,1 0 0,1 -1,-1a1,1 0 0,1 1,-1M35 14a1,1 0 0,0 1,-1a1,1 0 0,1 1,-1a1,1 0 0,1 1,1a1,1 0 0,0 1,1a1,1 0 0,1 1,1a1,1 0 0,0 1,1h2a1,1 0 0,1 1,1a1,1 0 0,1 -1,1a1,1 0 0,0 -1,1a1,1 0 0,1 -1,1a1,1 0 0,1 -1,-1a1,1 0 0,0 -1,-1a1,1 0 0,1 -1,-1a1,1 0 0,0 -1,-1h-2a1,1 0 0,1 -1,-1a1,1 0 0,1 1,-1M35 18a1,1 0 0,1 1,1a1,1 0 0,1 -1,1a1,1 0 0,1 -1,-1a1,1 0 0,1 1,-1M35 24a1,1 0 0,1 1,1a1,1 0 0,1 -1,1a1,1 0 0,1 -1,-1a1,1 0 0,1 1,-1M35 38a1,1 0 0,0 1,-1a1,1 0 0,1 1,-1a1,1 0 0,1 1,1v2a1,1 0 0,1 -1,1h-2a1,1 0 0,1 -1,-1a1,1 0 0,1 1,-1M35 48h2a1,1 0 0,1 1,1a1,1 0 0,1 -1,1h-2a1,1 0 0,1 -1,-1a1,1 0 0,1 1,-1M39 0a1,1 0 0,1 1,1a1,1 0 0,1 -1,1a1,1 0 0,1 -1,-1a1,1 0 0,1 1,-1M39 10h2a1,1 0 0,1 1,1v2a1,1 0 0,1 -1,1a1,1 0 0,1 -1,-1a1,1 0 0,0 -1,-1a1,1 0 0,1 -1,-1a1,1 0 0,1 1,-1M41 2a1,1 0 0,1 1,1a1,1 0 0,1 -1,1a1,1 0 0,1 -1,-1a1,1 0 0,1 1,-1M43 20a1,1 0 0,1 1,1a1,1 0 0,1 -1,1a1,1 0 0,1 -1,-1a1,1 0 0,1 1,-1M43 48h2h2a1,1 0 0,0 1,-1v-2v-2a1,1 0 0,0 -1,-1h-2h-2a1,1 0 0,0 -1,1v2v2a1,1 0 0,0 1,1M43 54a1,1 0 0,1 1,1a1,1 0 0,0 1,1h2a1,1 0 0,0 1,-1v-2a1,1 0 0,0 -1,-1h-2a1,1 0 0,1 -1,-1a1,1 0 0,0 -1,-1a1,1 0 0,0 -1,1v2a1,1 0 0,0 1,1M45 0h2h2h2h2h2h2a1,1 0 0,1 1,1v2v2v2v2v2v2a1,1 0 0,1 -1,1h-2h-2h-2h-2h-2h-2a1,1 0 0,1 -1,-1v-2v-2v-2v-2v-2v-2a1,1 0 0,1 1,-1M45 18a1,1 0 0,1 1,1a1,1 0 0,1 -1,1a1,1 0 0,1 -1,-1a1,1 0 0,1 1,-1M45 40a1,1 0 0,0 1,-1v-2a1,1 0 0,0 -1,-1a1,1 0 0,0 -1,1v2a1,1 0 0,0 1,1M45 44a1,1 0 0,1 1,1a1,1 0 0,1 -1,1a1,1 0 0,1 -1,-1a1,1 0 0,1 1,-1M47 12h2h2h2h2a1,1 0 0,0 1,-1v-2v-2v-2v-2a1,1 0 0,0 -1,-1h-2h-2h-2h-2a1,1 0 0,0 -1,1v2v2v2v2a1,1 0 0,0 1,1M47 16a1,1 0 0,1 1,1a1,1 0 0,1 -1,1a1,1 0 0,1 -1,-1a1,1 0 0,1 1,-1M49 4h2h2a1,1 0 0,1 1,1v2v2a1,1 0 0,1 -1,1h-2h-2a1,1 0 0,1 -1,-1v-2v-2a1,1 0 0,1 1,-1M49 20a1,1 0 0,0 1,-1a1,1 0 0,1 1,-1a1,1 0 0,1 1,1a1,1 0 0,0 1,1h2a1,1 0 0,1 1,1v2a1,1 0 0,0 1,1a1,1 0 0,1 1,1a1,1 0 0,1 -1,1h-2a1,1 0 0,1 -1,-1a1,1 0 0,0 -1,-1a1,1 0 0,1 -1,-1a1,1 0 0,0 -1,-1a1,1 0 0,0 -1,1a1,1 0 0,1 -1,1a1,1 0 0,1 -1,-1v-2a1,1 0 0,1 1,-1M51 24a1,1 0 0,1 1,1a1,1 0 0,1 -1,1a1,1 0 0,1 -1,-1a1,1 0 0,1 1,-1M51 34a1,1 0 0,1 1,1a1,1 0 0,1 -1,1a1,1 0 0,1 -1,-1a1,1 0 0,1 1,-1M53 40a1,1 0 0,1 1,1a1,1 0 0,0 1,1h2a1,1 0 0,1 1,1a1,1 0 0,1 -1,1a1,1 0 0,0 -1,1a1,1 0 0,1 -1,1a1,1 0 0,1 -1,-1a1,1 0 0,0 -1,-1a1,1 0 0,1 -1,-1v-2a1,1 0 0,1 1,-1M55 36a1,1 0 0,0 1,-1a1,1 0 0,1 1,-1a1,1 0 0,1 1,1v2v2a1,1 0 0,1 -1,1h-2a1,1 0 0,1 -1,-1v-2a1,1 0 0,1 1,-1M55 54a1,1 0 0,1 1,1v2a1,1 0 0,1 -1,1a1,1 0 0,1 -1,-1v-2a1,1 0 0,1 1,-1M57 18a1,1 0 0,1 1,1a1,1 0 0,1 -1,1a1,1 0 0,1 -1,-1a1,1 0 0,1 1,-1M57 52a1,1 0 0,1 1,1a1,1 0 0,1 -1,1a1,1 0 0,1 -1,-1a1,1 0 0,1 1,-1"
          stroke="url(#grad)" stroke-width="0.2" fill-rule="evenodd"/>
</svg>